%TF.GenerationSoftware,KiCad,Pcbnew,9.0.5*%
%TF.CreationDate,2025-11-05T10:26:17-05:00*%
%TF.ProjectId,dvrk-ios,6476726b-2d69-46f7-932e-6b696361645f,rev?*%
%TF.SameCoordinates,Original*%
%TF.FileFunction,Drillmap*%
%TF.FilePolarity,Positive*%
%FSLAX45Y45*%
G04 Gerber Fmt 4.5, Leading zero omitted, Abs format (unit mm)*
G04 Created by KiCad (PCBNEW 9.0.5) date 2025-11-05 10:26:17*
%MOMM*%
%LPD*%
G01*
G04 APERTURE LIST*
%ADD10C,0.050000*%
%ADD11C,0.200000*%
G04 APERTURE END LIST*
D10*
X7890000Y-5125000D02*
X7890000Y-5090000D01*
X3325000Y-5125000D02*
X3325000Y-1825000D01*
X3325000Y-1825000D02*
X7890000Y-1825000D01*
X7890000Y-1825000D02*
X7890000Y-5090000D01*
X3350000Y-5125000D02*
X3325000Y-5125000D01*
X7890000Y-5125000D02*
X3350000Y-5125000D01*
D11*
X3583277Y-5438984D02*
X3583277Y-5238984D01*
X3583277Y-5238984D02*
X3630896Y-5238984D01*
X3630896Y-5238984D02*
X3659467Y-5248508D01*
X3659467Y-5248508D02*
X3678515Y-5267555D01*
X3678515Y-5267555D02*
X3688039Y-5286603D01*
X3688039Y-5286603D02*
X3697562Y-5324698D01*
X3697562Y-5324698D02*
X3697562Y-5353270D01*
X3697562Y-5353270D02*
X3688039Y-5391365D01*
X3688039Y-5391365D02*
X3678515Y-5410412D01*
X3678515Y-5410412D02*
X3659467Y-5429460D01*
X3659467Y-5429460D02*
X3630896Y-5438984D01*
X3630896Y-5438984D02*
X3583277Y-5438984D01*
X3783277Y-5438984D02*
X3783277Y-5305650D01*
X3783277Y-5343746D02*
X3792801Y-5324698D01*
X3792801Y-5324698D02*
X3802324Y-5315174D01*
X3802324Y-5315174D02*
X3821372Y-5305650D01*
X3821372Y-5305650D02*
X3840420Y-5305650D01*
X3907086Y-5438984D02*
X3907086Y-5305650D01*
X3907086Y-5238984D02*
X3897562Y-5248508D01*
X3897562Y-5248508D02*
X3907086Y-5258031D01*
X3907086Y-5258031D02*
X3916610Y-5248508D01*
X3916610Y-5248508D02*
X3907086Y-5238984D01*
X3907086Y-5238984D02*
X3907086Y-5258031D01*
X4030896Y-5438984D02*
X4011848Y-5429460D01*
X4011848Y-5429460D02*
X4002324Y-5410412D01*
X4002324Y-5410412D02*
X4002324Y-5238984D01*
X4135658Y-5438984D02*
X4116610Y-5429460D01*
X4116610Y-5429460D02*
X4107086Y-5410412D01*
X4107086Y-5410412D02*
X4107086Y-5238984D01*
X4364229Y-5438984D02*
X4364229Y-5238984D01*
X4364229Y-5238984D02*
X4430896Y-5381841D01*
X4430896Y-5381841D02*
X4497563Y-5238984D01*
X4497563Y-5238984D02*
X4497563Y-5438984D01*
X4678515Y-5438984D02*
X4678515Y-5334222D01*
X4678515Y-5334222D02*
X4668991Y-5315174D01*
X4668991Y-5315174D02*
X4649944Y-5305650D01*
X4649944Y-5305650D02*
X4611848Y-5305650D01*
X4611848Y-5305650D02*
X4592801Y-5315174D01*
X4678515Y-5429460D02*
X4659467Y-5438984D01*
X4659467Y-5438984D02*
X4611848Y-5438984D01*
X4611848Y-5438984D02*
X4592801Y-5429460D01*
X4592801Y-5429460D02*
X4583277Y-5410412D01*
X4583277Y-5410412D02*
X4583277Y-5391365D01*
X4583277Y-5391365D02*
X4592801Y-5372317D01*
X4592801Y-5372317D02*
X4611848Y-5362793D01*
X4611848Y-5362793D02*
X4659467Y-5362793D01*
X4659467Y-5362793D02*
X4678515Y-5353270D01*
X4773753Y-5305650D02*
X4773753Y-5505650D01*
X4773753Y-5315174D02*
X4792801Y-5305650D01*
X4792801Y-5305650D02*
X4830896Y-5305650D01*
X4830896Y-5305650D02*
X4849944Y-5315174D01*
X4849944Y-5315174D02*
X4859467Y-5324698D01*
X4859467Y-5324698D02*
X4868991Y-5343746D01*
X4868991Y-5343746D02*
X4868991Y-5400889D01*
X4868991Y-5400889D02*
X4859467Y-5419936D01*
X4859467Y-5419936D02*
X4849944Y-5429460D01*
X4849944Y-5429460D02*
X4830896Y-5438984D01*
X4830896Y-5438984D02*
X4792801Y-5438984D01*
X4792801Y-5438984D02*
X4773753Y-5429460D01*
X4954705Y-5419936D02*
X4964229Y-5429460D01*
X4964229Y-5429460D02*
X4954705Y-5438984D01*
X4954705Y-5438984D02*
X4945182Y-5429460D01*
X4945182Y-5429460D02*
X4954705Y-5419936D01*
X4954705Y-5419936D02*
X4954705Y-5438984D01*
X4954705Y-5315174D02*
X4964229Y-5324698D01*
X4964229Y-5324698D02*
X4954705Y-5334222D01*
X4954705Y-5334222D02*
X4945182Y-5324698D01*
X4945182Y-5324698D02*
X4954705Y-5315174D01*
X4954705Y-5315174D02*
X4954705Y-5334222D01*
M02*
