G04 #@! TF.GenerationSoftware,KiCad,Pcbnew,9.0.6*
G04 #@! TF.CreationDate,2026-02-17T21:16:07-05:00*
G04 #@! TF.ProjectId,dvrk-ios,6476726b-2d69-46f7-932e-6b696361645f,rev?*
G04 #@! TF.SameCoordinates,Original*
G04 #@! TF.FileFunction,Legend,Top*
G04 #@! TF.FilePolarity,Positive*
%FSLAX46Y46*%
G04 Gerber Fmt 4.6, Leading zero omitted, Abs format (unit mm)*
G04 Created by KiCad (PCBNEW 9.0.6) date 2026-02-17 21:16:07*
%MOMM*%
%LPD*%
G01*
G04 APERTURE LIST*
G04 Aperture macros list*
%AMRoundRect*
0 Rectangle with rounded corners*
0 $1 Rounding radius*
0 $2 $3 $4 $5 $6 $7 $8 $9 X,Y pos of 4 corners*
0 Add a 4 corners polygon primitive as box body*
4,1,4,$2,$3,$4,$5,$6,$7,$8,$9,$2,$3,0*
0 Add four circle primitives for the rounded corners*
1,1,$1+$1,$2,$3*
1,1,$1+$1,$4,$5*
1,1,$1+$1,$6,$7*
1,1,$1+$1,$8,$9*
0 Add four rect primitives between the rounded corners*
20,1,$1+$1,$2,$3,$4,$5,0*
20,1,$1+$1,$4,$5,$6,$7,0*
20,1,$1+$1,$6,$7,$8,$9,0*
20,1,$1+$1,$8,$9,$2,$3,0*%
G04 Aperture macros list end*
%ADD10C,0.200000*%
%ADD11C,0.150000*%
%ADD12C,0.254000*%
%ADD13C,0.120000*%
%ADD14C,0.100000*%
%ADD15C,0.152400*%
%ADD16R,1.575000X1.575000*%
%ADD17C,1.575000*%
%ADD18RoundRect,0.225000X0.250000X-0.225000X0.250000X0.225000X-0.250000X0.225000X-0.250000X-0.225000X0*%
%ADD19R,1.150000X0.600000*%
%ADD20RoundRect,0.200000X-0.275000X0.200000X-0.275000X-0.200000X0.275000X-0.200000X0.275000X0.200000X0*%
%ADD21RoundRect,0.225000X-0.250000X0.225000X-0.250000X-0.225000X0.250000X-0.225000X0.250000X0.225000X0*%
%ADD22R,1.530000X1.530000*%
%ADD23C,1.530000*%
%ADD24C,4.770000*%
%ADD25R,1.450000X1.100001*%
%ADD26R,0.977900X0.508000*%
%ADD27RoundRect,0.200000X0.275000X-0.200000X0.275000X0.200000X-0.275000X0.200000X-0.275000X-0.200000X0*%
G04 APERTURE END LIST*
D10*
X58953006Y-26543409D02*
X58619673Y-26543409D01*
X58619673Y-27067219D02*
X58619673Y-26067219D01*
X58619673Y-26067219D02*
X59095863Y-26067219D01*
X59905387Y-27067219D02*
X59905387Y-26543409D01*
X59905387Y-26543409D02*
X59857768Y-26448171D01*
X59857768Y-26448171D02*
X59762530Y-26400552D01*
X59762530Y-26400552D02*
X59572054Y-26400552D01*
X59572054Y-26400552D02*
X59476816Y-26448171D01*
X59905387Y-27019600D02*
X59810149Y-27067219D01*
X59810149Y-27067219D02*
X59572054Y-27067219D01*
X59572054Y-27067219D02*
X59476816Y-27019600D01*
X59476816Y-27019600D02*
X59429197Y-26924361D01*
X59429197Y-26924361D02*
X59429197Y-26829123D01*
X59429197Y-26829123D02*
X59476816Y-26733885D01*
X59476816Y-26733885D02*
X59572054Y-26686266D01*
X59572054Y-26686266D02*
X59810149Y-26686266D01*
X59810149Y-26686266D02*
X59905387Y-26638647D01*
X60810149Y-26400552D02*
X60810149Y-27067219D01*
X60381578Y-26400552D02*
X60381578Y-26924361D01*
X60381578Y-26924361D02*
X60429197Y-27019600D01*
X60429197Y-27019600D02*
X60524435Y-27067219D01*
X60524435Y-27067219D02*
X60667292Y-27067219D01*
X60667292Y-27067219D02*
X60762530Y-27019600D01*
X60762530Y-27019600D02*
X60810149Y-26971980D01*
X61429197Y-27067219D02*
X61333959Y-27019600D01*
X61333959Y-27019600D02*
X61286340Y-26924361D01*
X61286340Y-26924361D02*
X61286340Y-26067219D01*
X61667293Y-26400552D02*
X62048245Y-26400552D01*
X61810150Y-26067219D02*
X61810150Y-26924361D01*
X61810150Y-26924361D02*
X61857769Y-27019600D01*
X61857769Y-27019600D02*
X61953007Y-27067219D01*
X61953007Y-27067219D02*
X62048245Y-27067219D01*
D11*
X68139410Y-20149931D02*
X68139410Y-19149931D01*
X68139410Y-20102312D02*
X68044172Y-20149931D01*
X68044172Y-20149931D02*
X67853696Y-20149931D01*
X67853696Y-20149931D02*
X67758458Y-20102312D01*
X67758458Y-20102312D02*
X67710839Y-20054692D01*
X67710839Y-20054692D02*
X67663220Y-19959454D01*
X67663220Y-19959454D02*
X67663220Y-19673740D01*
X67663220Y-19673740D02*
X67710839Y-19578502D01*
X67710839Y-19578502D02*
X67758458Y-19530883D01*
X67758458Y-19530883D02*
X67853696Y-19483264D01*
X67853696Y-19483264D02*
X68044172Y-19483264D01*
X68044172Y-19483264D02*
X68139410Y-19530883D01*
X68472744Y-19149931D02*
X68806077Y-20149931D01*
X68806077Y-20149931D02*
X69139410Y-19149931D01*
X70044172Y-20149931D02*
X69710839Y-19673740D01*
X69472744Y-20149931D02*
X69472744Y-19149931D01*
X69472744Y-19149931D02*
X69853696Y-19149931D01*
X69853696Y-19149931D02*
X69948934Y-19197550D01*
X69948934Y-19197550D02*
X69996553Y-19245169D01*
X69996553Y-19245169D02*
X70044172Y-19340407D01*
X70044172Y-19340407D02*
X70044172Y-19483264D01*
X70044172Y-19483264D02*
X69996553Y-19578502D01*
X69996553Y-19578502D02*
X69948934Y-19626121D01*
X69948934Y-19626121D02*
X69853696Y-19673740D01*
X69853696Y-19673740D02*
X69472744Y-19673740D01*
X70472744Y-20149931D02*
X70472744Y-19149931D01*
X71044172Y-20149931D02*
X70615601Y-19578502D01*
X71044172Y-19149931D02*
X70472744Y-19721359D01*
X72187030Y-19864216D02*
X72663220Y-19864216D01*
X72091792Y-20149931D02*
X72425125Y-19149931D01*
X72425125Y-19149931D02*
X72758458Y-20149931D01*
X73520363Y-19483264D02*
X73520363Y-20149931D01*
X73091792Y-19483264D02*
X73091792Y-20007073D01*
X73091792Y-20007073D02*
X73139411Y-20102312D01*
X73139411Y-20102312D02*
X73234649Y-20149931D01*
X73234649Y-20149931D02*
X73377506Y-20149931D01*
X73377506Y-20149931D02*
X73472744Y-20102312D01*
X73472744Y-20102312D02*
X73520363Y-20054692D01*
X73901316Y-20149931D02*
X74425125Y-19483264D01*
X73901316Y-19483264D02*
X74425125Y-20149931D01*
X75567983Y-20149931D02*
X75567983Y-19149931D01*
X76758458Y-19102312D02*
X75901316Y-20388026D01*
X77282268Y-19149931D02*
X77472744Y-19149931D01*
X77472744Y-19149931D02*
X77567982Y-19197550D01*
X77567982Y-19197550D02*
X77663220Y-19292788D01*
X77663220Y-19292788D02*
X77710839Y-19483264D01*
X77710839Y-19483264D02*
X77710839Y-19816597D01*
X77710839Y-19816597D02*
X77663220Y-20007073D01*
X77663220Y-20007073D02*
X77567982Y-20102312D01*
X77567982Y-20102312D02*
X77472744Y-20149931D01*
X77472744Y-20149931D02*
X77282268Y-20149931D01*
X77282268Y-20149931D02*
X77187030Y-20102312D01*
X77187030Y-20102312D02*
X77091792Y-20007073D01*
X77091792Y-20007073D02*
X77044173Y-19816597D01*
X77044173Y-19816597D02*
X77044173Y-19483264D01*
X77044173Y-19483264D02*
X77091792Y-19292788D01*
X77091792Y-19292788D02*
X77187030Y-19197550D01*
X77187030Y-19197550D02*
X77282268Y-19149931D01*
X74377505Y-21759875D02*
X74044172Y-21283684D01*
X73806077Y-21759875D02*
X73806077Y-20759875D01*
X73806077Y-20759875D02*
X74187029Y-20759875D01*
X74187029Y-20759875D02*
X74282267Y-20807494D01*
X74282267Y-20807494D02*
X74329886Y-20855113D01*
X74329886Y-20855113D02*
X74377505Y-20950351D01*
X74377505Y-20950351D02*
X74377505Y-21093208D01*
X74377505Y-21093208D02*
X74329886Y-21188446D01*
X74329886Y-21188446D02*
X74282267Y-21236065D01*
X74282267Y-21236065D02*
X74187029Y-21283684D01*
X74187029Y-21283684D02*
X73806077Y-21283684D01*
X75187029Y-21712256D02*
X75091791Y-21759875D01*
X75091791Y-21759875D02*
X74901315Y-21759875D01*
X74901315Y-21759875D02*
X74806077Y-21712256D01*
X74806077Y-21712256D02*
X74758458Y-21617017D01*
X74758458Y-21617017D02*
X74758458Y-21236065D01*
X74758458Y-21236065D02*
X74806077Y-21140827D01*
X74806077Y-21140827D02*
X74901315Y-21093208D01*
X74901315Y-21093208D02*
X75091791Y-21093208D01*
X75091791Y-21093208D02*
X75187029Y-21140827D01*
X75187029Y-21140827D02*
X75234648Y-21236065D01*
X75234648Y-21236065D02*
X75234648Y-21331303D01*
X75234648Y-21331303D02*
X74758458Y-21426541D01*
X75567982Y-21093208D02*
X75806077Y-21759875D01*
X75806077Y-21759875D02*
X76044172Y-21093208D01*
X77710839Y-21759875D02*
X77139411Y-21759875D01*
X77425125Y-21759875D02*
X77425125Y-20759875D01*
X77425125Y-20759875D02*
X77329887Y-20902732D01*
X77329887Y-20902732D02*
X77234649Y-20997970D01*
X77234649Y-20997970D02*
X77139411Y-21045589D01*
X67425124Y-23750771D02*
X67377505Y-23703152D01*
X67377505Y-23703152D02*
X67282267Y-23560295D01*
X67282267Y-23560295D02*
X67234648Y-23465057D01*
X67234648Y-23465057D02*
X67187029Y-23322200D01*
X67187029Y-23322200D02*
X67139410Y-23084104D01*
X67139410Y-23084104D02*
X67139410Y-22893628D01*
X67139410Y-22893628D02*
X67187029Y-22655533D01*
X67187029Y-22655533D02*
X67234648Y-22512676D01*
X67234648Y-22512676D02*
X67282267Y-22417438D01*
X67282267Y-22417438D02*
X67377505Y-22274580D01*
X67377505Y-22274580D02*
X67425124Y-22226961D01*
X68377505Y-23274580D02*
X68329886Y-23322200D01*
X68329886Y-23322200D02*
X68187029Y-23369819D01*
X68187029Y-23369819D02*
X68091791Y-23369819D01*
X68091791Y-23369819D02*
X67948934Y-23322200D01*
X67948934Y-23322200D02*
X67853696Y-23226961D01*
X67853696Y-23226961D02*
X67806077Y-23131723D01*
X67806077Y-23131723D02*
X67758458Y-22941247D01*
X67758458Y-22941247D02*
X67758458Y-22798390D01*
X67758458Y-22798390D02*
X67806077Y-22607914D01*
X67806077Y-22607914D02*
X67853696Y-22512676D01*
X67853696Y-22512676D02*
X67948934Y-22417438D01*
X67948934Y-22417438D02*
X68091791Y-22369819D01*
X68091791Y-22369819D02*
X68187029Y-22369819D01*
X68187029Y-22369819D02*
X68329886Y-22417438D01*
X68329886Y-22417438D02*
X68377505Y-22465057D01*
X68710839Y-23750771D02*
X68758458Y-23703152D01*
X68758458Y-23703152D02*
X68853696Y-23560295D01*
X68853696Y-23560295D02*
X68901315Y-23465057D01*
X68901315Y-23465057D02*
X68948934Y-23322200D01*
X68948934Y-23322200D02*
X68996553Y-23084104D01*
X68996553Y-23084104D02*
X68996553Y-22893628D01*
X68996553Y-22893628D02*
X68948934Y-22655533D01*
X68948934Y-22655533D02*
X68901315Y-22512676D01*
X68901315Y-22512676D02*
X68853696Y-22417438D01*
X68853696Y-22417438D02*
X68758458Y-22274580D01*
X68758458Y-22274580D02*
X68710839Y-22226961D01*
X70520363Y-22369819D02*
X70520363Y-23084104D01*
X70520363Y-23084104D02*
X70472744Y-23226961D01*
X70472744Y-23226961D02*
X70377506Y-23322200D01*
X70377506Y-23322200D02*
X70234649Y-23369819D01*
X70234649Y-23369819D02*
X70139411Y-23369819D01*
X70996554Y-23369819D02*
X70996554Y-22369819D01*
X70996554Y-22846009D02*
X71567982Y-22846009D01*
X71567982Y-23369819D02*
X71567982Y-22369819D01*
X72044173Y-22369819D02*
X72044173Y-23179342D01*
X72044173Y-23179342D02*
X72091792Y-23274580D01*
X72091792Y-23274580D02*
X72139411Y-23322200D01*
X72139411Y-23322200D02*
X72234649Y-23369819D01*
X72234649Y-23369819D02*
X72425125Y-23369819D01*
X72425125Y-23369819D02*
X72520363Y-23322200D01*
X72520363Y-23322200D02*
X72567982Y-23274580D01*
X72567982Y-23274580D02*
X72615601Y-23179342D01*
X72615601Y-23179342D02*
X72615601Y-22369819D01*
X73139411Y-23322200D02*
X73139411Y-23369819D01*
X73139411Y-23369819D02*
X73091792Y-23465057D01*
X73091792Y-23465057D02*
X73044173Y-23512676D01*
X74282268Y-22465057D02*
X74329887Y-22417438D01*
X74329887Y-22417438D02*
X74425125Y-22369819D01*
X74425125Y-22369819D02*
X74663220Y-22369819D01*
X74663220Y-22369819D02*
X74758458Y-22417438D01*
X74758458Y-22417438D02*
X74806077Y-22465057D01*
X74806077Y-22465057D02*
X74853696Y-22560295D01*
X74853696Y-22560295D02*
X74853696Y-22655533D01*
X74853696Y-22655533D02*
X74806077Y-22798390D01*
X74806077Y-22798390D02*
X74234649Y-23369819D01*
X74234649Y-23369819D02*
X74853696Y-23369819D01*
X75472744Y-22369819D02*
X75567982Y-22369819D01*
X75567982Y-22369819D02*
X75663220Y-22417438D01*
X75663220Y-22417438D02*
X75710839Y-22465057D01*
X75710839Y-22465057D02*
X75758458Y-22560295D01*
X75758458Y-22560295D02*
X75806077Y-22750771D01*
X75806077Y-22750771D02*
X75806077Y-22988866D01*
X75806077Y-22988866D02*
X75758458Y-23179342D01*
X75758458Y-23179342D02*
X75710839Y-23274580D01*
X75710839Y-23274580D02*
X75663220Y-23322200D01*
X75663220Y-23322200D02*
X75567982Y-23369819D01*
X75567982Y-23369819D02*
X75472744Y-23369819D01*
X75472744Y-23369819D02*
X75377506Y-23322200D01*
X75377506Y-23322200D02*
X75329887Y-23274580D01*
X75329887Y-23274580D02*
X75282268Y-23179342D01*
X75282268Y-23179342D02*
X75234649Y-22988866D01*
X75234649Y-22988866D02*
X75234649Y-22750771D01*
X75234649Y-22750771D02*
X75282268Y-22560295D01*
X75282268Y-22560295D02*
X75329887Y-22465057D01*
X75329887Y-22465057D02*
X75377506Y-22417438D01*
X75377506Y-22417438D02*
X75472744Y-22369819D01*
X76187030Y-22465057D02*
X76234649Y-22417438D01*
X76234649Y-22417438D02*
X76329887Y-22369819D01*
X76329887Y-22369819D02*
X76567982Y-22369819D01*
X76567982Y-22369819D02*
X76663220Y-22417438D01*
X76663220Y-22417438D02*
X76710839Y-22465057D01*
X76710839Y-22465057D02*
X76758458Y-22560295D01*
X76758458Y-22560295D02*
X76758458Y-22655533D01*
X76758458Y-22655533D02*
X76710839Y-22798390D01*
X76710839Y-22798390D02*
X76139411Y-23369819D01*
X76139411Y-23369819D02*
X76758458Y-23369819D01*
X77663220Y-22369819D02*
X77187030Y-22369819D01*
X77187030Y-22369819D02*
X77139411Y-22846009D01*
X77139411Y-22846009D02*
X77187030Y-22798390D01*
X77187030Y-22798390D02*
X77282268Y-22750771D01*
X77282268Y-22750771D02*
X77520363Y-22750771D01*
X77520363Y-22750771D02*
X77615601Y-22798390D01*
X77615601Y-22798390D02*
X77663220Y-22846009D01*
X77663220Y-22846009D02*
X77710839Y-22941247D01*
X77710839Y-22941247D02*
X77710839Y-23179342D01*
X77710839Y-23179342D02*
X77663220Y-23274580D01*
X77663220Y-23274580D02*
X77615601Y-23322200D01*
X77615601Y-23322200D02*
X77520363Y-23369819D01*
X77520363Y-23369819D02*
X77282268Y-23369819D01*
X77282268Y-23369819D02*
X77187030Y-23322200D01*
X77187030Y-23322200D02*
X77139411Y-23274580D01*
D12*
X71504318Y-43323332D02*
X72411461Y-43323332D01*
X72411461Y-43323332D02*
X72592889Y-43383809D01*
X72592889Y-43383809D02*
X72713842Y-43504761D01*
X72713842Y-43504761D02*
X72774318Y-43686190D01*
X72774318Y-43686190D02*
X72774318Y-43807142D01*
X71625270Y-42779047D02*
X71564794Y-42718571D01*
X71564794Y-42718571D02*
X71504318Y-42597618D01*
X71504318Y-42597618D02*
X71504318Y-42295237D01*
X71504318Y-42295237D02*
X71564794Y-42174285D01*
X71564794Y-42174285D02*
X71625270Y-42113809D01*
X71625270Y-42113809D02*
X71746222Y-42053332D01*
X71746222Y-42053332D02*
X71867175Y-42053332D01*
X71867175Y-42053332D02*
X72048603Y-42113809D01*
X72048603Y-42113809D02*
X72774318Y-42839523D01*
X72774318Y-42839523D02*
X72774318Y-42053332D01*
D11*
X51109580Y-45982246D02*
X51157200Y-46029865D01*
X51157200Y-46029865D02*
X51204819Y-46172722D01*
X51204819Y-46172722D02*
X51204819Y-46267960D01*
X51204819Y-46267960D02*
X51157200Y-46410817D01*
X51157200Y-46410817D02*
X51061961Y-46506055D01*
X51061961Y-46506055D02*
X50966723Y-46553674D01*
X50966723Y-46553674D02*
X50776247Y-46601293D01*
X50776247Y-46601293D02*
X50633390Y-46601293D01*
X50633390Y-46601293D02*
X50442914Y-46553674D01*
X50442914Y-46553674D02*
X50347676Y-46506055D01*
X50347676Y-46506055D02*
X50252438Y-46410817D01*
X50252438Y-46410817D02*
X50204819Y-46267960D01*
X50204819Y-46267960D02*
X50204819Y-46172722D01*
X50204819Y-46172722D02*
X50252438Y-46029865D01*
X50252438Y-46029865D02*
X50300057Y-45982246D01*
X50300057Y-45601293D02*
X50252438Y-45553674D01*
X50252438Y-45553674D02*
X50204819Y-45458436D01*
X50204819Y-45458436D02*
X50204819Y-45220341D01*
X50204819Y-45220341D02*
X50252438Y-45125103D01*
X50252438Y-45125103D02*
X50300057Y-45077484D01*
X50300057Y-45077484D02*
X50395295Y-45029865D01*
X50395295Y-45029865D02*
X50490533Y-45029865D01*
X50490533Y-45029865D02*
X50633390Y-45077484D01*
X50633390Y-45077484D02*
X51204819Y-45648912D01*
X51204819Y-45648912D02*
X51204819Y-45029865D01*
X62338095Y-32104819D02*
X62338095Y-32914342D01*
X62338095Y-32914342D02*
X62385714Y-33009580D01*
X62385714Y-33009580D02*
X62433333Y-33057200D01*
X62433333Y-33057200D02*
X62528571Y-33104819D01*
X62528571Y-33104819D02*
X62719047Y-33104819D01*
X62719047Y-33104819D02*
X62814285Y-33057200D01*
X62814285Y-33057200D02*
X62861904Y-33009580D01*
X62861904Y-33009580D02*
X62909523Y-32914342D01*
X62909523Y-32914342D02*
X62909523Y-32104819D01*
X63338095Y-32200057D02*
X63385714Y-32152438D01*
X63385714Y-32152438D02*
X63480952Y-32104819D01*
X63480952Y-32104819D02*
X63719047Y-32104819D01*
X63719047Y-32104819D02*
X63814285Y-32152438D01*
X63814285Y-32152438D02*
X63861904Y-32200057D01*
X63861904Y-32200057D02*
X63909523Y-32295295D01*
X63909523Y-32295295D02*
X63909523Y-32390533D01*
X63909523Y-32390533D02*
X63861904Y-32533390D01*
X63861904Y-32533390D02*
X63290476Y-33104819D01*
X63290476Y-33104819D02*
X63909523Y-33104819D01*
X65754769Y-39996716D02*
X65278578Y-40330049D01*
X65754769Y-40568144D02*
X64754769Y-40568144D01*
X64754769Y-40568144D02*
X64754769Y-40187192D01*
X64754769Y-40187192D02*
X64802388Y-40091954D01*
X64802388Y-40091954D02*
X64850007Y-40044335D01*
X64850007Y-40044335D02*
X64945245Y-39996716D01*
X64945245Y-39996716D02*
X65088102Y-39996716D01*
X65088102Y-39996716D02*
X65183340Y-40044335D01*
X65183340Y-40044335D02*
X65230959Y-40091954D01*
X65230959Y-40091954D02*
X65278578Y-40187192D01*
X65278578Y-40187192D02*
X65278578Y-40568144D01*
X65088102Y-39139573D02*
X65754769Y-39139573D01*
X64707150Y-39377668D02*
X65421435Y-39615763D01*
X65421435Y-39615763D02*
X65421435Y-38996716D01*
X54404769Y-40021716D02*
X53928578Y-40355049D01*
X54404769Y-40593144D02*
X53404769Y-40593144D01*
X53404769Y-40593144D02*
X53404769Y-40212192D01*
X53404769Y-40212192D02*
X53452388Y-40116954D01*
X53452388Y-40116954D02*
X53500007Y-40069335D01*
X53500007Y-40069335D02*
X53595245Y-40021716D01*
X53595245Y-40021716D02*
X53738102Y-40021716D01*
X53738102Y-40021716D02*
X53833340Y-40069335D01*
X53833340Y-40069335D02*
X53880959Y-40116954D01*
X53880959Y-40116954D02*
X53928578Y-40212192D01*
X53928578Y-40212192D02*
X53928578Y-40593144D01*
X53404769Y-39688382D02*
X53404769Y-39069335D01*
X53404769Y-39069335D02*
X53785721Y-39402668D01*
X53785721Y-39402668D02*
X53785721Y-39259811D01*
X53785721Y-39259811D02*
X53833340Y-39164573D01*
X53833340Y-39164573D02*
X53880959Y-39116954D01*
X53880959Y-39116954D02*
X53976197Y-39069335D01*
X53976197Y-39069335D02*
X54214292Y-39069335D01*
X54214292Y-39069335D02*
X54309530Y-39116954D01*
X54309530Y-39116954D02*
X54357150Y-39164573D01*
X54357150Y-39164573D02*
X54404769Y-39259811D01*
X54404769Y-39259811D02*
X54404769Y-39545525D01*
X54404769Y-39545525D02*
X54357150Y-39640763D01*
X54357150Y-39640763D02*
X54309530Y-39688382D01*
X58383333Y-48259580D02*
X58335714Y-48307200D01*
X58335714Y-48307200D02*
X58192857Y-48354819D01*
X58192857Y-48354819D02*
X58097619Y-48354819D01*
X58097619Y-48354819D02*
X57954762Y-48307200D01*
X57954762Y-48307200D02*
X57859524Y-48211961D01*
X57859524Y-48211961D02*
X57811905Y-48116723D01*
X57811905Y-48116723D02*
X57764286Y-47926247D01*
X57764286Y-47926247D02*
X57764286Y-47783390D01*
X57764286Y-47783390D02*
X57811905Y-47592914D01*
X57811905Y-47592914D02*
X57859524Y-47497676D01*
X57859524Y-47497676D02*
X57954762Y-47402438D01*
X57954762Y-47402438D02*
X58097619Y-47354819D01*
X58097619Y-47354819D02*
X58192857Y-47354819D01*
X58192857Y-47354819D02*
X58335714Y-47402438D01*
X58335714Y-47402438D02*
X58383333Y-47450057D01*
X59335714Y-48354819D02*
X58764286Y-48354819D01*
X59050000Y-48354819D02*
X59050000Y-47354819D01*
X59050000Y-47354819D02*
X58954762Y-47497676D01*
X58954762Y-47497676D02*
X58859524Y-47592914D01*
X58859524Y-47592914D02*
X58764286Y-47640533D01*
D12*
X47954318Y-33873332D02*
X48861461Y-33873332D01*
X48861461Y-33873332D02*
X49042889Y-33933809D01*
X49042889Y-33933809D02*
X49163842Y-34054761D01*
X49163842Y-34054761D02*
X49224318Y-34236190D01*
X49224318Y-34236190D02*
X49224318Y-34357142D01*
X49224318Y-32603332D02*
X49224318Y-33329047D01*
X49224318Y-32966190D02*
X47954318Y-32966190D01*
X47954318Y-32966190D02*
X48135746Y-33087142D01*
X48135746Y-33087142D02*
X48256699Y-33208094D01*
X48256699Y-33208094D02*
X48317175Y-33329047D01*
D11*
X58804819Y-24038094D02*
X57804819Y-24038094D01*
X57804819Y-24038094D02*
X57804819Y-23799999D01*
X57804819Y-23799999D02*
X57852438Y-23657142D01*
X57852438Y-23657142D02*
X57947676Y-23561904D01*
X57947676Y-23561904D02*
X58042914Y-23514285D01*
X58042914Y-23514285D02*
X58233390Y-23466666D01*
X58233390Y-23466666D02*
X58376247Y-23466666D01*
X58376247Y-23466666D02*
X58566723Y-23514285D01*
X58566723Y-23514285D02*
X58661961Y-23561904D01*
X58661961Y-23561904D02*
X58757200Y-23657142D01*
X58757200Y-23657142D02*
X58804819Y-23799999D01*
X58804819Y-23799999D02*
X58804819Y-24038094D01*
X58804819Y-22514285D02*
X58804819Y-23085713D01*
X58804819Y-22799999D02*
X57804819Y-22799999D01*
X57804819Y-22799999D02*
X57947676Y-22895237D01*
X57947676Y-22895237D02*
X58042914Y-22990475D01*
X58042914Y-22990475D02*
X58090533Y-23085713D01*
X61954769Y-39971716D02*
X61478578Y-40305049D01*
X61954769Y-40543144D02*
X60954769Y-40543144D01*
X60954769Y-40543144D02*
X60954769Y-40162192D01*
X60954769Y-40162192D02*
X61002388Y-40066954D01*
X61002388Y-40066954D02*
X61050007Y-40019335D01*
X61050007Y-40019335D02*
X61145245Y-39971716D01*
X61145245Y-39971716D02*
X61288102Y-39971716D01*
X61288102Y-39971716D02*
X61383340Y-40019335D01*
X61383340Y-40019335D02*
X61430959Y-40066954D01*
X61430959Y-40066954D02*
X61478578Y-40162192D01*
X61478578Y-40162192D02*
X61478578Y-40543144D01*
X61954769Y-39019335D02*
X61954769Y-39590763D01*
X61954769Y-39305049D02*
X60954769Y-39305049D01*
X60954769Y-39305049D02*
X61097626Y-39400287D01*
X61097626Y-39400287D02*
X61192864Y-39495525D01*
X61192864Y-39495525D02*
X61240483Y-39590763D01*
X54735344Y-48004819D02*
X54735344Y-48814342D01*
X54735344Y-48814342D02*
X54782963Y-48909580D01*
X54782963Y-48909580D02*
X54830582Y-48957200D01*
X54830582Y-48957200D02*
X54925820Y-49004819D01*
X54925820Y-49004819D02*
X55116296Y-49004819D01*
X55116296Y-49004819D02*
X55211534Y-48957200D01*
X55211534Y-48957200D02*
X55259153Y-48909580D01*
X55259153Y-48909580D02*
X55306772Y-48814342D01*
X55306772Y-48814342D02*
X55306772Y-48004819D01*
X56306772Y-49004819D02*
X55735344Y-49004819D01*
X56021058Y-49004819D02*
X56021058Y-48004819D01*
X56021058Y-48004819D02*
X55925820Y-48147676D01*
X55925820Y-48147676D02*
X55830582Y-48242914D01*
X55830582Y-48242914D02*
X55735344Y-48290533D01*
X56973641Y-47709927D02*
X56973641Y-47948022D01*
X56735546Y-47852784D02*
X56973641Y-47948022D01*
X56973641Y-47948022D02*
X57211736Y-47852784D01*
X56830784Y-48138498D02*
X56973641Y-47948022D01*
X56973641Y-47948022D02*
X57116498Y-48138498D01*
X63989580Y-45591666D02*
X64037200Y-45639285D01*
X64037200Y-45639285D02*
X64084819Y-45782142D01*
X64084819Y-45782142D02*
X64084819Y-45877380D01*
X64084819Y-45877380D02*
X64037200Y-46020237D01*
X64037200Y-46020237D02*
X63941961Y-46115475D01*
X63941961Y-46115475D02*
X63846723Y-46163094D01*
X63846723Y-46163094D02*
X63656247Y-46210713D01*
X63656247Y-46210713D02*
X63513390Y-46210713D01*
X63513390Y-46210713D02*
X63322914Y-46163094D01*
X63322914Y-46163094D02*
X63227676Y-46115475D01*
X63227676Y-46115475D02*
X63132438Y-46020237D01*
X63132438Y-46020237D02*
X63084819Y-45877380D01*
X63084819Y-45877380D02*
X63084819Y-45782142D01*
X63084819Y-45782142D02*
X63132438Y-45639285D01*
X63132438Y-45639285D02*
X63180057Y-45591666D01*
X63418152Y-44734523D02*
X64084819Y-44734523D01*
X63037200Y-44972618D02*
X63751485Y-45210713D01*
X63751485Y-45210713D02*
X63751485Y-44591666D01*
X64049819Y-23466666D02*
X63573628Y-23799999D01*
X64049819Y-24038094D02*
X63049819Y-24038094D01*
X63049819Y-24038094D02*
X63049819Y-23657142D01*
X63049819Y-23657142D02*
X63097438Y-23561904D01*
X63097438Y-23561904D02*
X63145057Y-23514285D01*
X63145057Y-23514285D02*
X63240295Y-23466666D01*
X63240295Y-23466666D02*
X63383152Y-23466666D01*
X63383152Y-23466666D02*
X63478390Y-23514285D01*
X63478390Y-23514285D02*
X63526009Y-23561904D01*
X63526009Y-23561904D02*
X63573628Y-23657142D01*
X63573628Y-23657142D02*
X63573628Y-24038094D01*
X63049819Y-22561904D02*
X63049819Y-23038094D01*
X63049819Y-23038094D02*
X63526009Y-23085713D01*
X63526009Y-23085713D02*
X63478390Y-23038094D01*
X63478390Y-23038094D02*
X63430771Y-22942856D01*
X63430771Y-22942856D02*
X63430771Y-22704761D01*
X63430771Y-22704761D02*
X63478390Y-22609523D01*
X63478390Y-22609523D02*
X63526009Y-22561904D01*
X63526009Y-22561904D02*
X63621247Y-22514285D01*
X63621247Y-22514285D02*
X63859342Y-22514285D01*
X63859342Y-22514285D02*
X63954580Y-22561904D01*
X63954580Y-22561904D02*
X64002200Y-22609523D01*
X64002200Y-22609523D02*
X64049819Y-22704761D01*
X64049819Y-22704761D02*
X64049819Y-22942856D01*
X64049819Y-22942856D02*
X64002200Y-23038094D01*
X64002200Y-23038094D02*
X63954580Y-23085713D01*
X60383333Y-48259580D02*
X60335714Y-48307200D01*
X60335714Y-48307200D02*
X60192857Y-48354819D01*
X60192857Y-48354819D02*
X60097619Y-48354819D01*
X60097619Y-48354819D02*
X59954762Y-48307200D01*
X59954762Y-48307200D02*
X59859524Y-48211961D01*
X59859524Y-48211961D02*
X59811905Y-48116723D01*
X59811905Y-48116723D02*
X59764286Y-47926247D01*
X59764286Y-47926247D02*
X59764286Y-47783390D01*
X59764286Y-47783390D02*
X59811905Y-47592914D01*
X59811905Y-47592914D02*
X59859524Y-47497676D01*
X59859524Y-47497676D02*
X59954762Y-47402438D01*
X59954762Y-47402438D02*
X60097619Y-47354819D01*
X60097619Y-47354819D02*
X60192857Y-47354819D01*
X60192857Y-47354819D02*
X60335714Y-47402438D01*
X60335714Y-47402438D02*
X60383333Y-47450057D01*
X60716667Y-47354819D02*
X61335714Y-47354819D01*
X61335714Y-47354819D02*
X61002381Y-47735771D01*
X61002381Y-47735771D02*
X61145238Y-47735771D01*
X61145238Y-47735771D02*
X61240476Y-47783390D01*
X61240476Y-47783390D02*
X61288095Y-47831009D01*
X61288095Y-47831009D02*
X61335714Y-47926247D01*
X61335714Y-47926247D02*
X61335714Y-48164342D01*
X61335714Y-48164342D02*
X61288095Y-48259580D01*
X61288095Y-48259580D02*
X61240476Y-48307200D01*
X61240476Y-48307200D02*
X61145238Y-48354819D01*
X61145238Y-48354819D02*
X60859524Y-48354819D01*
X60859524Y-48354819D02*
X60764286Y-48307200D01*
X60764286Y-48307200D02*
X60716667Y-48259580D01*
X58654769Y-39971716D02*
X58178578Y-40305049D01*
X58654769Y-40543144D02*
X57654769Y-40543144D01*
X57654769Y-40543144D02*
X57654769Y-40162192D01*
X57654769Y-40162192D02*
X57702388Y-40066954D01*
X57702388Y-40066954D02*
X57750007Y-40019335D01*
X57750007Y-40019335D02*
X57845245Y-39971716D01*
X57845245Y-39971716D02*
X57988102Y-39971716D01*
X57988102Y-39971716D02*
X58083340Y-40019335D01*
X58083340Y-40019335D02*
X58130959Y-40066954D01*
X58130959Y-40066954D02*
X58178578Y-40162192D01*
X58178578Y-40162192D02*
X58178578Y-40543144D01*
X57750007Y-39590763D02*
X57702388Y-39543144D01*
X57702388Y-39543144D02*
X57654769Y-39447906D01*
X57654769Y-39447906D02*
X57654769Y-39209811D01*
X57654769Y-39209811D02*
X57702388Y-39114573D01*
X57702388Y-39114573D02*
X57750007Y-39066954D01*
X57750007Y-39066954D02*
X57845245Y-39019335D01*
X57845245Y-39019335D02*
X57940483Y-39019335D01*
X57940483Y-39019335D02*
X58083340Y-39066954D01*
X58083340Y-39066954D02*
X58654769Y-39638382D01*
X58654769Y-39638382D02*
X58654769Y-39019335D01*
D10*
X68150000Y-41150000D02*
X82900000Y-41150000D01*
X82900000Y-32650000D02*
X72400000Y-32650000D01*
X82900000Y-41150000D02*
X82900000Y-32650000D01*
D13*
X51790000Y-45815580D02*
X51790000Y-45534420D01*
X52810000Y-45815580D02*
X52810000Y-45534420D01*
D10*
X61275000Y-34000000D02*
X62425000Y-34000000D01*
X62775000Y-34150000D02*
X63425000Y-34150000D01*
X62775000Y-37050000D02*
X62775000Y-34150000D01*
X63425000Y-34150000D02*
X63425000Y-37050000D01*
X63425000Y-37050000D02*
X62775000Y-37050000D01*
D13*
X63347450Y-39592792D02*
X63347450Y-40067308D01*
X64392450Y-39592792D02*
X64392450Y-40067308D01*
X51997450Y-39617792D02*
X51997450Y-40092308D01*
X53042450Y-39617792D02*
X53042450Y-40092308D01*
X58087249Y-45296919D02*
X58087249Y-45578079D01*
X59107249Y-45296919D02*
X59107249Y-45578079D01*
D10*
X27200000Y-26580000D02*
X27200000Y-42910000D01*
X27200000Y-42910000D02*
X33350000Y-42910000D01*
X27560000Y-19745000D02*
X33350000Y-19745000D01*
X27560000Y-24745000D02*
X27560000Y-19745000D01*
X27560000Y-44745000D02*
X27560000Y-49745000D01*
X27560000Y-49745000D02*
X33350000Y-49745000D01*
X33350000Y-19340000D02*
X34350000Y-19340000D01*
X33350000Y-24745000D02*
X27560000Y-24745000D01*
X33350000Y-26580000D02*
X27200000Y-26580000D01*
X33350000Y-44745000D02*
X27560000Y-44745000D01*
X33350000Y-50150000D02*
X33350000Y-19340000D01*
X34270000Y-19340000D02*
X46050000Y-19340000D01*
X34350000Y-19340000D02*
X34350000Y-50150000D01*
X34350000Y-25745000D02*
X34350000Y-25745000D01*
X34350000Y-26745000D02*
X46050000Y-26745000D01*
X34350000Y-50150000D02*
X33350000Y-50150000D01*
X34350000Y-50150000D02*
X46050000Y-50150000D01*
X46050000Y-19340000D02*
X46050000Y-25745000D01*
X46050000Y-25745000D02*
X34350000Y-25745000D01*
X46050000Y-26745000D02*
X46050000Y-42745000D01*
X46050000Y-42745000D02*
X34350000Y-42745000D01*
X46050000Y-43745000D02*
X34270000Y-43745000D01*
X46050000Y-50150000D02*
X46050000Y-43745000D01*
D14*
X46470000Y-40225000D02*
X46470000Y-40225000D01*
X46570000Y-40225000D02*
X46570000Y-40225000D01*
X46470000Y-40225000D02*
G75*
G02*
X46570000Y-40225000I50000J0D01*
G01*
X46570000Y-40225000D02*
G75*
G02*
X46470000Y-40225000I-50000J0D01*
G01*
D15*
X59599900Y-23024154D02*
X59599900Y-23575846D01*
X60400000Y-19568000D02*
X59765000Y-20330000D01*
X60400000Y-19568000D02*
X59892000Y-20330000D01*
X60400000Y-19568000D02*
X60019000Y-20330000D01*
X60400000Y-19568000D02*
X60146000Y-20330000D01*
X60400000Y-19568000D02*
X60273000Y-20330000D01*
X60400000Y-19568000D02*
X60527000Y-20330000D01*
X60400000Y-19568000D02*
X60654000Y-20330000D01*
X60400000Y-19568000D02*
X60781000Y-20330000D01*
X60400000Y-19568000D02*
X60908000Y-20330000D01*
X60400000Y-19568000D02*
X61035000Y-20330000D01*
X60400000Y-20584000D02*
X60400000Y-19314000D01*
X61035000Y-19568000D02*
X59765000Y-19568000D01*
X61035000Y-20330000D02*
X59765000Y-20330000D01*
X61200100Y-23575846D02*
X61200100Y-23024154D01*
D13*
X59547450Y-39567792D02*
X59547450Y-40042308D01*
X60592450Y-39567792D02*
X60592450Y-40042308D01*
D15*
X54493949Y-45174238D02*
X54493949Y-45900760D01*
X54493949Y-47175799D02*
X56500549Y-47175799D01*
X56500549Y-43899199D02*
X54493949Y-43899199D01*
D13*
X61690000Y-45284420D02*
X61690000Y-45565580D01*
X62710000Y-45284420D02*
X62710000Y-45565580D01*
X64502500Y-23537258D02*
X64502500Y-23062742D01*
X65547500Y-23537258D02*
X65547500Y-23062742D01*
X59890000Y-45284420D02*
X59890000Y-45565580D01*
X60910000Y-45284420D02*
X60910000Y-45565580D01*
X56247450Y-39567792D02*
X56247450Y-40042308D01*
X57292450Y-39567792D02*
X57292450Y-40042308D01*
%LPC*%
D16*
X68150000Y-39150000D03*
D17*
X70150000Y-39150000D03*
X68150000Y-37150000D03*
X70150000Y-37150000D03*
X68150000Y-35150000D03*
X70150000Y-35150000D03*
D18*
X52300000Y-46450000D03*
X52300000Y-44900000D03*
D19*
X61850000Y-34650000D03*
X61850000Y-35600000D03*
X61850000Y-36550000D03*
X64350000Y-36550000D03*
X64350000Y-35600000D03*
X64350000Y-34650000D03*
D20*
X63869950Y-39005050D03*
X63869950Y-40655050D03*
X52519950Y-39030050D03*
X52519950Y-40680050D03*
D21*
X58597249Y-44662499D03*
X58597249Y-46212499D03*
D22*
X44270000Y-40225000D03*
D23*
X44270000Y-37485000D03*
X44270000Y-34745000D03*
X44270000Y-32005000D03*
X44270000Y-29265000D03*
X41430000Y-38855000D03*
X41430000Y-36115000D03*
X41430000Y-33375000D03*
X41430000Y-30635000D03*
D24*
X42850000Y-47240000D03*
X42850000Y-22250000D03*
D25*
X60400000Y-22150000D03*
X60400000Y-24450000D03*
D20*
X60069950Y-38980050D03*
X60069950Y-40630050D03*
D26*
X56862499Y-46487500D03*
X56862499Y-45537499D03*
X56862499Y-44587498D03*
X54131999Y-44587498D03*
X54131999Y-46487500D03*
D21*
X62200000Y-44650000D03*
X62200000Y-46200000D03*
D27*
X65025000Y-24125000D03*
X65025000Y-22475000D03*
D21*
X60400000Y-44650000D03*
X60400000Y-46200000D03*
D20*
X56769950Y-38980050D03*
X56769950Y-40630050D03*
%LPD*%
M02*
