G04 #@! TF.GenerationSoftware,KiCad,Pcbnew,9.0.6*
G04 #@! TF.CreationDate,2026-02-17T21:16:07-05:00*
G04 #@! TF.ProjectId,dvrk-ios,6476726b-2d69-46f7-932e-6b696361645f,rev?*
G04 #@! TF.SameCoordinates,Original*
G04 #@! TF.FileFunction,Copper,L1,Top*
G04 #@! TF.FilePolarity,Positive*
%FSLAX46Y46*%
G04 Gerber Fmt 4.6, Leading zero omitted, Abs format (unit mm)*
G04 Created by KiCad (PCBNEW 9.0.6) date 2026-02-17 21:16:07*
%MOMM*%
%LPD*%
G01*
G04 APERTURE LIST*
G04 Aperture macros list*
%AMRoundRect*
0 Rectangle with rounded corners*
0 $1 Rounding radius*
0 $2 $3 $4 $5 $6 $7 $8 $9 X,Y pos of 4 corners*
0 Add a 4 corners polygon primitive as box body*
4,1,4,$2,$3,$4,$5,$6,$7,$8,$9,$2,$3,0*
0 Add four circle primitives for the rounded corners*
1,1,$1+$1,$2,$3*
1,1,$1+$1,$4,$5*
1,1,$1+$1,$6,$7*
1,1,$1+$1,$8,$9*
0 Add four rect primitives between the rounded corners*
20,1,$1+$1,$2,$3,$4,$5,0*
20,1,$1+$1,$4,$5,$6,$7,0*
20,1,$1+$1,$6,$7,$8,$9,0*
20,1,$1+$1,$8,$9,$2,$3,0*%
G04 Aperture macros list end*
G04 #@! TA.AperFunction,ComponentPad*
%ADD10R,1.575000X1.575000*%
G04 #@! TD*
G04 #@! TA.AperFunction,ComponentPad*
%ADD11C,1.575000*%
G04 #@! TD*
G04 #@! TA.AperFunction,SMDPad,CuDef*
%ADD12RoundRect,0.225000X0.250000X-0.225000X0.250000X0.225000X-0.250000X0.225000X-0.250000X-0.225000X0*%
G04 #@! TD*
G04 #@! TA.AperFunction,SMDPad,CuDef*
%ADD13R,1.150000X0.600000*%
G04 #@! TD*
G04 #@! TA.AperFunction,SMDPad,CuDef*
%ADD14RoundRect,0.200000X-0.275000X0.200000X-0.275000X-0.200000X0.275000X-0.200000X0.275000X0.200000X0*%
G04 #@! TD*
G04 #@! TA.AperFunction,SMDPad,CuDef*
%ADD15RoundRect,0.225000X-0.250000X0.225000X-0.250000X-0.225000X0.250000X-0.225000X0.250000X0.225000X0*%
G04 #@! TD*
G04 #@! TA.AperFunction,ComponentPad*
%ADD16R,1.530000X1.530000*%
G04 #@! TD*
G04 #@! TA.AperFunction,ComponentPad*
%ADD17C,1.530000*%
G04 #@! TD*
G04 #@! TA.AperFunction,ComponentPad*
%ADD18C,4.770000*%
G04 #@! TD*
G04 #@! TA.AperFunction,SMDPad,CuDef*
%ADD19R,1.450000X1.100001*%
G04 #@! TD*
G04 #@! TA.AperFunction,SMDPad,CuDef*
%ADD20R,0.977900X0.508000*%
G04 #@! TD*
G04 #@! TA.AperFunction,SMDPad,CuDef*
%ADD21RoundRect,0.200000X0.275000X-0.200000X0.275000X0.200000X-0.275000X0.200000X-0.275000X-0.200000X0*%
G04 #@! TD*
G04 #@! TA.AperFunction,ViaPad*
%ADD22C,0.600000*%
G04 #@! TD*
G04 #@! TA.AperFunction,Conductor*
%ADD23C,0.177800*%
G04 #@! TD*
G04 #@! TA.AperFunction,Conductor*
%ADD24C,0.355600*%
G04 #@! TD*
G04 APERTURE END LIST*
D10*
X68150000Y-39150000D03*
D11*
X70150000Y-39150000D03*
X68150000Y-37150000D03*
X70150000Y-37150000D03*
X68150000Y-35150000D03*
X70150000Y-35150000D03*
D12*
X52300000Y-46450000D03*
X52300000Y-44900000D03*
D13*
X61850000Y-34650000D03*
X61850000Y-35600000D03*
X61850000Y-36550000D03*
X64350000Y-36550000D03*
X64350000Y-35600000D03*
X64350000Y-34650000D03*
D14*
X63869950Y-39005050D03*
X63869950Y-40655050D03*
X52519950Y-39030050D03*
X52519950Y-40680050D03*
D15*
X58597249Y-44662499D03*
X58597249Y-46212499D03*
D16*
X44270000Y-40225000D03*
D17*
X44270000Y-37485000D03*
X44270000Y-34745000D03*
X44270000Y-32005000D03*
X44270000Y-29265000D03*
X41430000Y-38855000D03*
X41430000Y-36115000D03*
X41430000Y-33375000D03*
X41430000Y-30635000D03*
D18*
X42850000Y-47240000D03*
X42850000Y-22250000D03*
D19*
X60400000Y-22150000D03*
X60400000Y-24450000D03*
D14*
X60069950Y-38980050D03*
X60069950Y-40630050D03*
D20*
X56862499Y-46487500D03*
X56862499Y-45537499D03*
X56862499Y-44587498D03*
X54131999Y-44587498D03*
X54131999Y-46487500D03*
D15*
X62200000Y-44650000D03*
X62200000Y-46200000D03*
D21*
X65025000Y-24125000D03*
X65025000Y-22475000D03*
D15*
X60400000Y-44650000D03*
X60400000Y-46200000D03*
D14*
X56769950Y-38980050D03*
X56769950Y-40630050D03*
D22*
X51900000Y-47450000D03*
X65850000Y-36000000D03*
X57816057Y-45026271D03*
X60100000Y-35350000D03*
X61250000Y-44500000D03*
D23*
X58597249Y-44662499D02*
X58087501Y-44662499D01*
X60350000Y-35600000D02*
X60100000Y-35350000D01*
X64350000Y-35600000D02*
X65450000Y-35600000D01*
X58087501Y-44662499D02*
X57750000Y-45000000D01*
X51900000Y-47450000D02*
X52300000Y-47050000D01*
X60387501Y-44662499D02*
X60400000Y-44650000D01*
X57750000Y-45000000D02*
X57776271Y-45026271D01*
X57304829Y-45537499D02*
X56862499Y-45537499D01*
X61400000Y-44650000D02*
X61250000Y-44500000D01*
X65450000Y-35600000D02*
X65850000Y-36000000D01*
X61100000Y-44650000D02*
X61250000Y-44500000D01*
X52300000Y-47050000D02*
X52300000Y-46450000D01*
X57816057Y-45026271D02*
X57304829Y-45537499D01*
X60400000Y-44650000D02*
X61100000Y-44650000D01*
X62200000Y-44650000D02*
X61400000Y-44650000D01*
X61850000Y-35600000D02*
X60350000Y-35600000D01*
X57776271Y-45026271D02*
X57816057Y-45026271D01*
X45547004Y-33311300D02*
X52519950Y-40284246D01*
X41745100Y-33059900D02*
X41430000Y-33375000D01*
X41493700Y-33311300D02*
X45547004Y-33311300D01*
X41430000Y-33375000D02*
X41493700Y-33311300D01*
X52519950Y-40284246D02*
X52519950Y-40680050D01*
X39050000Y-31650000D02*
X39050000Y-39000000D01*
X61791250Y-42733750D02*
X63869950Y-40655050D01*
X40550000Y-40500000D02*
X41800000Y-40500000D01*
X40065000Y-30635000D02*
X39050000Y-31650000D01*
X39050000Y-39000000D02*
X40550000Y-40500000D01*
X51733750Y-42733750D02*
X61791250Y-42733750D01*
X47539900Y-38539900D02*
X51733750Y-42733750D01*
X41800000Y-40500000D02*
X43760100Y-38539900D01*
X43760100Y-38539900D02*
X47539900Y-38539900D01*
X41430000Y-30635000D02*
X40065000Y-30635000D01*
X42773027Y-33690100D02*
X41430000Y-35033127D01*
X46514900Y-35914900D02*
X46514900Y-35464900D01*
X51969950Y-41369950D02*
X46514900Y-35914900D01*
X44740100Y-33690100D02*
X42773027Y-33690100D01*
X56030050Y-41369950D02*
X51969950Y-41369950D01*
X56769950Y-40630050D02*
X56030050Y-41369950D01*
X41430000Y-35033127D02*
X41430000Y-36115000D01*
X46514900Y-35464900D02*
X44740100Y-33690100D01*
X60069950Y-40630050D02*
X58345050Y-42354950D01*
X43913146Y-36350000D02*
X41430000Y-38833146D01*
X41430000Y-38833146D02*
X41430000Y-38855000D01*
X45885704Y-36350000D02*
X43913146Y-36350000D01*
X58345050Y-42354950D02*
X51890654Y-42354950D01*
X51890654Y-42354950D02*
X45885704Y-36350000D01*
X67455904Y-37300000D02*
X68150000Y-37300000D01*
X56400000Y-36550000D02*
X55750000Y-37200000D01*
X52519950Y-38455050D02*
X54425000Y-36550000D01*
X55750000Y-39485100D02*
X55959850Y-39694950D01*
X55959850Y-39694950D02*
X64600000Y-39694950D01*
X56675000Y-36550000D02*
X56400000Y-36550000D01*
X66516491Y-37150000D02*
X68150000Y-37150000D01*
X64600000Y-39694950D02*
X65600000Y-38694950D01*
X65600000Y-38694950D02*
X65600000Y-38066491D01*
X65600000Y-38066491D02*
X66516491Y-37150000D01*
X61850000Y-36550000D02*
X56675000Y-36550000D01*
X61850000Y-36550000D02*
X61400000Y-36550000D01*
X54425000Y-36550000D02*
X56675000Y-36550000D01*
X55750000Y-37200000D02*
X55750000Y-39485100D01*
X52519950Y-38455050D02*
X52519950Y-39030050D01*
X63869950Y-37030050D02*
X64350000Y-36550000D01*
X63869950Y-39005050D02*
X63869950Y-37030050D01*
X64389900Y-36589900D02*
X64350000Y-36550000D01*
X68150000Y-35150000D02*
X66710100Y-36589900D01*
X64350000Y-36550000D02*
X64550000Y-36750000D01*
X66710100Y-36589900D02*
X64389900Y-36589900D01*
X56769950Y-38980050D02*
X57800000Y-37950000D01*
X71227400Y-34703726D02*
X71227400Y-36072600D01*
X62354800Y-34650000D02*
X61850000Y-34650000D01*
X62714900Y-35010100D02*
X62354800Y-34650000D01*
X71227400Y-36072600D02*
X70150000Y-37150000D01*
X61904800Y-37950000D02*
X62714900Y-37139900D01*
X62806200Y-33693800D02*
X70217474Y-33693800D01*
X62714900Y-37139900D02*
X62714900Y-35010100D01*
X57800000Y-37950000D02*
X61904800Y-37950000D01*
X61850000Y-34650000D02*
X62806200Y-33693800D01*
X70217474Y-33693800D02*
X71227400Y-34703726D01*
X69072600Y-34072600D02*
X64927400Y-34072600D01*
X63485100Y-35010100D02*
X63845200Y-34650000D01*
X63845200Y-34650000D02*
X64350000Y-34650000D01*
X70150000Y-35150000D02*
X69072600Y-34072600D01*
X63485100Y-37314900D02*
X63485100Y-35010100D01*
X61819950Y-38980050D02*
X63485100Y-37314900D01*
X60069950Y-38980050D02*
X61819950Y-38980050D01*
X64927400Y-34072600D02*
X64350000Y-34650000D01*
D24*
X56311950Y-46487500D02*
X55933649Y-46109199D01*
X65233649Y-46231398D02*
X70150000Y-41315047D01*
X61883649Y-46206398D02*
X65208649Y-46206398D01*
X56302549Y-44587498D02*
X56862499Y-44587498D01*
X55933649Y-44956398D02*
X56302549Y-44587498D01*
X58597249Y-46212499D02*
X61877548Y-46212499D01*
X70150000Y-39150000D02*
X71695100Y-37604900D01*
X71695100Y-33795100D02*
X65025000Y-27125000D01*
X58597249Y-46212499D02*
X57137500Y-46212499D01*
X56862499Y-46487500D02*
X56862499Y-46585248D01*
X65025000Y-27125000D02*
X65025000Y-24125000D01*
X57137500Y-46212499D02*
X56862499Y-46487500D01*
X71695100Y-37604900D02*
X71695100Y-33795100D01*
X61877548Y-46212499D02*
X61883649Y-46206398D01*
X65208649Y-46206398D02*
X65233649Y-46231398D01*
X56862499Y-46487500D02*
X56311950Y-46487500D01*
X70150000Y-41315047D02*
X70150000Y-39150000D01*
X55933649Y-46109199D02*
X55933649Y-44956398D01*
X52300000Y-44900000D02*
X53887500Y-46487500D01*
X53887500Y-46487500D02*
X54131999Y-46487500D01*
X52100000Y-44900000D02*
X47425000Y-40225000D01*
X47425000Y-40225000D02*
X44270000Y-40225000D01*
X52093899Y-45106101D02*
X52300000Y-44900000D01*
X52300000Y-44900000D02*
X52100000Y-44900000D01*
D23*
X60400000Y-24450000D02*
X61825000Y-24450000D01*
X60400000Y-24100000D02*
X60700000Y-24100000D01*
X63800000Y-22475000D02*
X65025000Y-22475000D01*
X61825000Y-24450000D02*
X63800000Y-22475000D01*
X65621513Y-47052948D02*
X73300000Y-39374461D01*
X54131999Y-45019298D02*
X56165649Y-47052948D01*
X65508466Y-21785100D02*
X61114900Y-21785100D01*
X73300000Y-29576634D02*
X65508466Y-21785100D01*
X56165649Y-47052948D02*
X65621513Y-47052948D01*
X54131999Y-44587498D02*
X54131999Y-45019298D01*
X73300000Y-39374461D02*
X73300000Y-29576634D01*
X61114900Y-21785100D02*
X60400000Y-22500000D01*
M02*
