G04 #@! TF.GenerationSoftware,KiCad,Pcbnew,9.0.6*
G04 #@! TF.CreationDate,2026-02-17T21:16:07-05:00*
G04 #@! TF.ProjectId,dvrk-ios,6476726b-2d69-46f7-932e-6b696361645f,rev?*
G04 #@! TF.SameCoordinates,Original*
G04 #@! TF.FileFunction,Copper,L2,Bot*
G04 #@! TF.FilePolarity,Positive*
%FSLAX46Y46*%
G04 Gerber Fmt 4.6, Leading zero omitted, Abs format (unit mm)*
G04 Created by KiCad (PCBNEW 9.0.6) date 2026-02-17 21:16:07*
%MOMM*%
%LPD*%
G01*
G04 APERTURE LIST*
G04 #@! TA.AperFunction,ComponentPad*
%ADD10R,1.575000X1.575000*%
G04 #@! TD*
G04 #@! TA.AperFunction,ComponentPad*
%ADD11C,1.575000*%
G04 #@! TD*
G04 #@! TA.AperFunction,ComponentPad*
%ADD12R,1.530000X1.530000*%
G04 #@! TD*
G04 #@! TA.AperFunction,ComponentPad*
%ADD13C,1.530000*%
G04 #@! TD*
G04 #@! TA.AperFunction,ComponentPad*
%ADD14C,4.770000*%
G04 #@! TD*
G04 #@! TA.AperFunction,ViaPad*
%ADD15C,0.600000*%
G04 #@! TD*
G04 APERTURE END LIST*
D10*
X68150000Y-39150000D03*
D11*
X70150000Y-39150000D03*
X68150000Y-37150000D03*
X70150000Y-37150000D03*
X68150000Y-35150000D03*
X70150000Y-35150000D03*
D12*
X44270000Y-40225000D03*
D13*
X44270000Y-37485000D03*
X44270000Y-34745000D03*
X44270000Y-32005000D03*
X44270000Y-29265000D03*
X41430000Y-38855000D03*
X41430000Y-36115000D03*
X41430000Y-33375000D03*
X41430000Y-30635000D03*
D14*
X42850000Y-47240000D03*
X42850000Y-22250000D03*
D15*
X51900000Y-47450000D03*
X65850000Y-36000000D03*
X57816057Y-45026271D03*
X60100000Y-35350000D03*
X61250000Y-44500000D03*
G04 #@! TA.AperFunction,Conductor*
G36*
X78442539Y-18670185D02*
G01*
X78488294Y-18722989D01*
X78499500Y-18774500D01*
X78499500Y-50725500D01*
X78479815Y-50792539D01*
X78427011Y-50838294D01*
X78375500Y-50849500D01*
X33774500Y-50849500D01*
X33707461Y-50829815D01*
X33661706Y-50777011D01*
X33650500Y-50725500D01*
X33650500Y-47077975D01*
X39965000Y-47077975D01*
X39965000Y-47402024D01*
X40001277Y-47724002D01*
X40001280Y-47724016D01*
X40073384Y-48039928D01*
X40073388Y-48039940D01*
X40180405Y-48345774D01*
X40180411Y-48345788D01*
X40321000Y-48637725D01*
X40493398Y-48912095D01*
X40640228Y-49096216D01*
X41562906Y-48173538D01*
X41637216Y-48275816D01*
X41814184Y-48452784D01*
X41916460Y-48527092D01*
X40993782Y-49449770D01*
X41177904Y-49596601D01*
X41452274Y-49768999D01*
X41744211Y-49909588D01*
X41744225Y-49909594D01*
X42050059Y-50016611D01*
X42050071Y-50016615D01*
X42365983Y-50088719D01*
X42365997Y-50088722D01*
X42687975Y-50124999D01*
X42687979Y-50125000D01*
X43012021Y-50125000D01*
X43012024Y-50124999D01*
X43334002Y-50088722D01*
X43334016Y-50088719D01*
X43649928Y-50016615D01*
X43649940Y-50016611D01*
X43955774Y-49909594D01*
X43955788Y-49909588D01*
X44247725Y-49768999D01*
X44522095Y-49596601D01*
X44706216Y-49449770D01*
X43783538Y-48527092D01*
X43885816Y-48452784D01*
X44062784Y-48275816D01*
X44137092Y-48173538D01*
X45059770Y-49096216D01*
X45206601Y-48912095D01*
X45378999Y-48637725D01*
X45519588Y-48345788D01*
X45519594Y-48345774D01*
X45626611Y-48039940D01*
X45626615Y-48039928D01*
X45698719Y-47724016D01*
X45698722Y-47724002D01*
X45734999Y-47402024D01*
X45735000Y-47402020D01*
X45735000Y-47077979D01*
X45734999Y-47077975D01*
X45698722Y-46755997D01*
X45698719Y-46755983D01*
X45626615Y-46440071D01*
X45626611Y-46440059D01*
X45519594Y-46134225D01*
X45519588Y-46134211D01*
X45378999Y-45842274D01*
X45206601Y-45567904D01*
X45059770Y-45383782D01*
X44137092Y-46306460D01*
X44062784Y-46204184D01*
X43885816Y-46027216D01*
X43783538Y-45952907D01*
X44706216Y-45030228D01*
X44522095Y-44883398D01*
X44247725Y-44711000D01*
X43955788Y-44570411D01*
X43955774Y-44570405D01*
X43649940Y-44463388D01*
X43649928Y-44463384D01*
X43334016Y-44391280D01*
X43334002Y-44391277D01*
X43012024Y-44355000D01*
X42687975Y-44355000D01*
X42365997Y-44391277D01*
X42365983Y-44391280D01*
X42050071Y-44463384D01*
X42050059Y-44463388D01*
X41744225Y-44570405D01*
X41744211Y-44570411D01*
X41452274Y-44711000D01*
X41177904Y-44883398D01*
X40993782Y-45030228D01*
X41916461Y-45952907D01*
X41814184Y-46027216D01*
X41637216Y-46204184D01*
X41562907Y-46306461D01*
X40640228Y-45383782D01*
X40493398Y-45567904D01*
X40321000Y-45842274D01*
X40180411Y-46134211D01*
X40180405Y-46134225D01*
X40073388Y-46440059D01*
X40073384Y-46440071D01*
X40001280Y-46755983D01*
X40001277Y-46755997D01*
X39965000Y-47077975D01*
X33650500Y-47077975D01*
X33650500Y-30535403D01*
X40164500Y-30535403D01*
X40164500Y-30734596D01*
X40195661Y-30931340D01*
X40195661Y-30931343D01*
X40257213Y-31120780D01*
X40257215Y-31120783D01*
X40347647Y-31298266D01*
X40464731Y-31459418D01*
X40605582Y-31600269D01*
X40766734Y-31717353D01*
X40909479Y-31790085D01*
X40944219Y-31807786D01*
X41133657Y-31869338D01*
X41133658Y-31869338D01*
X41133661Y-31869339D01*
X41204345Y-31880534D01*
X41216926Y-31882527D01*
X41280061Y-31912456D01*
X41316992Y-31971768D01*
X41315994Y-32041630D01*
X41277384Y-32099863D01*
X41216926Y-32127473D01*
X41133659Y-32140661D01*
X41133656Y-32140661D01*
X40944219Y-32202213D01*
X40766733Y-32292647D01*
X40731636Y-32318147D01*
X40605582Y-32409731D01*
X40605580Y-32409733D01*
X40605579Y-32409733D01*
X40464733Y-32550579D01*
X40464733Y-32550580D01*
X40464731Y-32550582D01*
X40414447Y-32619790D01*
X40347647Y-32711733D01*
X40257213Y-32889219D01*
X40195661Y-33078656D01*
X40195661Y-33078659D01*
X40164500Y-33275403D01*
X40164500Y-33474596D01*
X40195661Y-33671340D01*
X40195661Y-33671343D01*
X40257213Y-33860780D01*
X40305914Y-33956361D01*
X40347647Y-34038266D01*
X40464731Y-34199418D01*
X40605582Y-34340269D01*
X40766734Y-34457353D01*
X40909479Y-34530085D01*
X40944219Y-34547786D01*
X41133657Y-34609338D01*
X41133658Y-34609338D01*
X41133661Y-34609339D01*
X41204345Y-34620534D01*
X41216926Y-34622527D01*
X41280061Y-34652456D01*
X41316992Y-34711768D01*
X41315994Y-34781630D01*
X41277384Y-34839863D01*
X41216926Y-34867473D01*
X41133659Y-34880661D01*
X41133656Y-34880661D01*
X40944219Y-34942213D01*
X40766733Y-35032647D01*
X40731636Y-35058147D01*
X40605582Y-35149731D01*
X40605580Y-35149733D01*
X40605579Y-35149733D01*
X40464733Y-35290579D01*
X40464733Y-35290580D01*
X40464731Y-35290582D01*
X40414447Y-35359790D01*
X40347647Y-35451733D01*
X40257213Y-35629219D01*
X40195661Y-35818656D01*
X40195661Y-35818659D01*
X40164500Y-36015403D01*
X40164500Y-36214596D01*
X40195661Y-36411340D01*
X40195661Y-36411343D01*
X40257213Y-36600780D01*
X40257215Y-36600783D01*
X40347647Y-36778266D01*
X40464731Y-36939418D01*
X40605582Y-37080269D01*
X40766734Y-37197353D01*
X40872743Y-37251367D01*
X40944219Y-37287786D01*
X41133657Y-37349338D01*
X41133658Y-37349338D01*
X41133661Y-37349339D01*
X41204345Y-37360534D01*
X41216926Y-37362527D01*
X41280061Y-37392456D01*
X41316992Y-37451768D01*
X41315994Y-37521630D01*
X41277384Y-37579863D01*
X41216926Y-37607473D01*
X41133659Y-37620661D01*
X41133656Y-37620661D01*
X40944219Y-37682213D01*
X40766733Y-37772647D01*
X40731636Y-37798147D01*
X40605582Y-37889731D01*
X40605580Y-37889733D01*
X40605579Y-37889733D01*
X40464733Y-38030579D01*
X40464733Y-38030580D01*
X40464731Y-38030582D01*
X40441673Y-38062319D01*
X40347647Y-38191733D01*
X40257213Y-38369219D01*
X40195661Y-38558656D01*
X40195661Y-38558659D01*
X40180310Y-38655580D01*
X40164500Y-38755403D01*
X40164500Y-38954597D01*
X40166292Y-38965909D01*
X40195661Y-39151340D01*
X40195661Y-39151343D01*
X40257213Y-39340780D01*
X40313683Y-39451608D01*
X40347647Y-39518266D01*
X40464731Y-39679418D01*
X40605582Y-39820269D01*
X40766734Y-39937353D01*
X40944217Y-40027785D01*
X40944219Y-40027786D01*
X41133657Y-40089338D01*
X41133658Y-40089338D01*
X41133661Y-40089339D01*
X41330403Y-40120500D01*
X41330404Y-40120500D01*
X41529596Y-40120500D01*
X41529597Y-40120500D01*
X41726339Y-40089339D01*
X41726342Y-40089338D01*
X41726343Y-40089338D01*
X41915780Y-40027786D01*
X41915780Y-40027785D01*
X41915783Y-40027785D01*
X42093266Y-39937353D01*
X42254418Y-39820269D01*
X42395269Y-39679418D01*
X42512353Y-39518266D01*
X42566429Y-39412135D01*
X43004500Y-39412135D01*
X43004500Y-41037870D01*
X43004501Y-41037876D01*
X43010908Y-41097483D01*
X43061202Y-41232328D01*
X43061206Y-41232335D01*
X43147452Y-41347544D01*
X43147455Y-41347547D01*
X43262664Y-41433793D01*
X43262671Y-41433797D01*
X43397517Y-41484091D01*
X43397516Y-41484091D01*
X43404444Y-41484835D01*
X43457127Y-41490500D01*
X45082872Y-41490499D01*
X45142483Y-41484091D01*
X45277331Y-41433796D01*
X45392546Y-41347546D01*
X45478796Y-41232331D01*
X45529091Y-41097483D01*
X45535500Y-41037873D01*
X45535499Y-39412128D01*
X45529091Y-39352517D01*
X45480594Y-39222489D01*
X45478797Y-39217671D01*
X45478793Y-39217664D01*
X45392547Y-39102455D01*
X45392544Y-39102452D01*
X45277335Y-39016206D01*
X45277328Y-39016202D01*
X45142482Y-38965908D01*
X45142483Y-38965908D01*
X45082883Y-38959501D01*
X45082881Y-38959500D01*
X45082873Y-38959500D01*
X45082865Y-38959500D01*
X44608488Y-38959500D01*
X44541449Y-38939815D01*
X44495694Y-38887011D01*
X44485750Y-38817853D01*
X44514775Y-38754297D01*
X44570170Y-38717569D01*
X44755594Y-38657320D01*
X44933005Y-38566924D01*
X44970863Y-38539418D01*
X44970863Y-38539417D01*
X44407574Y-37976128D01*
X44466853Y-37960245D01*
X44583147Y-37893102D01*
X44678102Y-37798147D01*
X44745245Y-37681853D01*
X44761128Y-37622574D01*
X45324417Y-38185863D01*
X45324418Y-38185863D01*
X45351924Y-38148005D01*
X45442320Y-37970594D01*
X45503852Y-37781222D01*
X45535000Y-37584563D01*
X45535000Y-37385436D01*
X45503852Y-37188777D01*
X45442320Y-36999405D01*
X45351924Y-36821994D01*
X45324417Y-36784135D01*
X45324417Y-36784134D01*
X44761128Y-37347424D01*
X44745245Y-37288147D01*
X44678102Y-37171853D01*
X44583147Y-37076898D01*
X44466853Y-37009755D01*
X44407574Y-36993871D01*
X44970864Y-36430581D01*
X44970863Y-36430580D01*
X44933008Y-36403077D01*
X44755594Y-36312679D01*
X44566222Y-36251148D01*
X44479882Y-36237473D01*
X44416747Y-36207544D01*
X44379816Y-36148232D01*
X44380814Y-36078370D01*
X44419424Y-36020137D01*
X44479882Y-35992527D01*
X44566222Y-35978851D01*
X44755594Y-35917320D01*
X44933005Y-35826924D01*
X44970863Y-35799418D01*
X44970863Y-35799417D01*
X44407574Y-35236128D01*
X44466853Y-35220245D01*
X44583147Y-35153102D01*
X44678102Y-35058147D01*
X44745245Y-34941853D01*
X44761128Y-34882574D01*
X45324417Y-35445863D01*
X45324418Y-35445863D01*
X45351924Y-35408005D01*
X45442320Y-35230594D01*
X45501444Y-35048632D01*
X66862000Y-35048632D01*
X66862000Y-35251368D01*
X66868211Y-35290580D01*
X66893715Y-35451608D01*
X66956361Y-35644417D01*
X66956362Y-35644420D01*
X67018915Y-35767186D01*
X67045138Y-35818652D01*
X67048405Y-35825062D01*
X67167562Y-35989069D01*
X67167566Y-35989074D01*
X67240811Y-36062319D01*
X67274296Y-36123642D01*
X67269312Y-36193334D01*
X67240811Y-36237681D01*
X67167566Y-36310925D01*
X67167562Y-36310930D01*
X67048405Y-36474937D01*
X66956362Y-36655579D01*
X66956361Y-36655582D01*
X66893715Y-36848391D01*
X66862000Y-37048632D01*
X66862000Y-37251367D01*
X66893715Y-37451608D01*
X66956361Y-37644417D01*
X66956362Y-37644420D01*
X67048407Y-37825067D01*
X67050949Y-37829215D01*
X67049155Y-37830313D01*
X67069675Y-37887833D01*
X67053847Y-37955886D01*
X67020191Y-37994170D01*
X67005317Y-38005304D01*
X67005308Y-38005314D01*
X66919149Y-38120406D01*
X66919145Y-38120413D01*
X66868903Y-38255120D01*
X66868901Y-38255127D01*
X66862500Y-38314655D01*
X66862500Y-38900000D01*
X67688120Y-38900000D01*
X67660778Y-38947358D01*
X67625000Y-39080882D01*
X67625000Y-39219118D01*
X67660778Y-39352642D01*
X67688120Y-39400000D01*
X66862500Y-39400000D01*
X66862500Y-39985344D01*
X66868901Y-40044872D01*
X66868903Y-40044879D01*
X66919145Y-40179586D01*
X66919149Y-40179593D01*
X67005309Y-40294687D01*
X67005312Y-40294690D01*
X67120406Y-40380850D01*
X67120413Y-40380854D01*
X67255120Y-40431096D01*
X67255127Y-40431098D01*
X67314655Y-40437499D01*
X67314672Y-40437500D01*
X67900000Y-40437500D01*
X67900000Y-39611879D01*
X67947358Y-39639222D01*
X68080882Y-39675000D01*
X68219118Y-39675000D01*
X68352642Y-39639222D01*
X68400000Y-39611879D01*
X68400000Y-40437500D01*
X68985328Y-40437500D01*
X68985344Y-40437499D01*
X69044872Y-40431098D01*
X69044879Y-40431096D01*
X69179586Y-40380854D01*
X69179588Y-40380852D01*
X69294686Y-40294690D01*
X69294687Y-40294690D01*
X69305823Y-40279814D01*
X69361756Y-40237941D01*
X69431447Y-40232955D01*
X69470053Y-40250244D01*
X69470785Y-40249051D01*
X69474932Y-40251592D01*
X69474939Y-40251595D01*
X69474941Y-40251597D01*
X69530320Y-40279814D01*
X69655579Y-40343637D01*
X69655582Y-40343638D01*
X69751986Y-40374961D01*
X69848393Y-40406285D01*
X70048632Y-40438000D01*
X70048633Y-40438000D01*
X70251367Y-40438000D01*
X70251368Y-40438000D01*
X70451607Y-40406285D01*
X70644420Y-40343637D01*
X70825059Y-40251597D01*
X70989076Y-40132432D01*
X71132432Y-39989076D01*
X71251597Y-39825059D01*
X71343637Y-39644420D01*
X71406285Y-39451607D01*
X71438000Y-39251368D01*
X71438000Y-39048632D01*
X71406285Y-38848393D01*
X71374961Y-38751986D01*
X71343638Y-38655582D01*
X71343637Y-38655579D01*
X71311764Y-38593026D01*
X71251597Y-38474941D01*
X71174786Y-38369219D01*
X71132437Y-38310930D01*
X71132433Y-38310925D01*
X71059189Y-38237681D01*
X71025704Y-38176358D01*
X71030688Y-38106666D01*
X71059189Y-38062319D01*
X71090929Y-38030579D01*
X71132432Y-37989076D01*
X71251597Y-37825059D01*
X71343637Y-37644420D01*
X71406285Y-37451607D01*
X71438000Y-37251368D01*
X71438000Y-37048632D01*
X71406285Y-36848393D01*
X71343637Y-36655580D01*
X71343637Y-36655579D01*
X71311764Y-36593026D01*
X71251597Y-36474941D01*
X71219367Y-36430580D01*
X71132437Y-36310930D01*
X71132433Y-36310925D01*
X71059189Y-36237681D01*
X71025704Y-36176358D01*
X71030688Y-36106666D01*
X71059189Y-36062319D01*
X71132432Y-35989076D01*
X71251597Y-35825059D01*
X71343637Y-35644420D01*
X71406285Y-35451607D01*
X71438000Y-35251368D01*
X71438000Y-35048632D01*
X71406285Y-34848393D01*
X71372691Y-34744999D01*
X71343638Y-34655582D01*
X71343637Y-34655579D01*
X71288713Y-34547786D01*
X71251597Y-34474941D01*
X71220292Y-34431853D01*
X71132437Y-34310930D01*
X71132433Y-34310925D01*
X70989074Y-34167566D01*
X70989069Y-34167562D01*
X70825062Y-34048405D01*
X70825061Y-34048404D01*
X70825059Y-34048403D01*
X70767186Y-34018915D01*
X70644420Y-33956362D01*
X70644417Y-33956361D01*
X70451608Y-33893715D01*
X70351487Y-33877857D01*
X70251368Y-33862000D01*
X70048632Y-33862000D01*
X69981885Y-33872571D01*
X69848391Y-33893715D01*
X69655582Y-33956361D01*
X69655579Y-33956362D01*
X69474937Y-34048405D01*
X69310930Y-34167562D01*
X69310925Y-34167566D01*
X69237681Y-34240811D01*
X69176358Y-34274296D01*
X69106666Y-34269312D01*
X69062319Y-34240811D01*
X68989074Y-34167566D01*
X68989069Y-34167562D01*
X68825062Y-34048405D01*
X68825061Y-34048404D01*
X68825059Y-34048403D01*
X68767186Y-34018915D01*
X68644420Y-33956362D01*
X68644417Y-33956361D01*
X68451608Y-33893715D01*
X68351487Y-33877857D01*
X68251368Y-33862000D01*
X68048632Y-33862000D01*
X67981885Y-33872571D01*
X67848391Y-33893715D01*
X67655582Y-33956361D01*
X67655579Y-33956362D01*
X67474937Y-34048405D01*
X67310930Y-34167562D01*
X67310925Y-34167566D01*
X67167566Y-34310925D01*
X67167562Y-34310930D01*
X67048405Y-34474937D01*
X66956362Y-34655579D01*
X66956361Y-34655582D01*
X66893715Y-34848391D01*
X66890693Y-34867473D01*
X66862000Y-35048632D01*
X45501444Y-35048632D01*
X45503851Y-35041225D01*
X45506523Y-35024359D01*
X45506523Y-35024357D01*
X45535000Y-34844563D01*
X45535000Y-34645436D01*
X45503852Y-34448777D01*
X45442320Y-34259405D01*
X45351924Y-34081994D01*
X45324417Y-34044135D01*
X45324417Y-34044134D01*
X44761128Y-34607424D01*
X44745245Y-34548147D01*
X44678102Y-34431853D01*
X44583147Y-34336898D01*
X44466853Y-34269755D01*
X44407574Y-34253871D01*
X44970864Y-33690581D01*
X44970863Y-33690580D01*
X44933008Y-33663077D01*
X44755594Y-33572679D01*
X44566222Y-33511148D01*
X44479882Y-33497473D01*
X44416747Y-33467544D01*
X44379816Y-33408232D01*
X44380814Y-33338370D01*
X44419424Y-33280137D01*
X44479882Y-33252527D01*
X44566222Y-33238851D01*
X44755594Y-33177320D01*
X44933005Y-33086924D01*
X44970863Y-33059418D01*
X44970863Y-33059417D01*
X44407574Y-32496128D01*
X44466853Y-32480245D01*
X44583147Y-32413102D01*
X44678102Y-32318147D01*
X44745245Y-32201853D01*
X44761128Y-32142574D01*
X45324417Y-32705863D01*
X45324418Y-32705863D01*
X45351924Y-32668005D01*
X45442320Y-32490594D01*
X45503852Y-32301222D01*
X45535000Y-32104563D01*
X45535000Y-31905436D01*
X45503852Y-31708777D01*
X45442320Y-31519405D01*
X45351924Y-31341994D01*
X45324417Y-31304135D01*
X45324417Y-31304134D01*
X44761128Y-31867424D01*
X44745245Y-31808147D01*
X44678102Y-31691853D01*
X44583147Y-31596898D01*
X44466853Y-31529755D01*
X44407574Y-31513871D01*
X44970864Y-30950581D01*
X44970863Y-30950580D01*
X44933008Y-30923077D01*
X44755594Y-30832679D01*
X44566222Y-30771148D01*
X44479882Y-30757473D01*
X44416747Y-30727544D01*
X44379816Y-30668232D01*
X44380814Y-30598370D01*
X44419424Y-30540137D01*
X44479882Y-30512527D01*
X44566222Y-30498851D01*
X44755594Y-30437320D01*
X44933005Y-30346924D01*
X44970863Y-30319418D01*
X44970863Y-30319417D01*
X44407574Y-29756128D01*
X44466853Y-29740245D01*
X44583147Y-29673102D01*
X44678102Y-29578147D01*
X44745245Y-29461853D01*
X44761128Y-29402574D01*
X45324417Y-29965863D01*
X45324418Y-29965863D01*
X45351924Y-29928005D01*
X45442320Y-29750594D01*
X45503852Y-29561222D01*
X45535000Y-29364563D01*
X45535000Y-29165436D01*
X45503852Y-28968777D01*
X45442320Y-28779405D01*
X45351924Y-28601994D01*
X45324417Y-28564135D01*
X45324417Y-28564134D01*
X44761128Y-29127424D01*
X44745245Y-29068147D01*
X44678102Y-28951853D01*
X44583147Y-28856898D01*
X44466853Y-28789755D01*
X44407574Y-28773871D01*
X44970864Y-28210581D01*
X44970863Y-28210580D01*
X44933008Y-28183077D01*
X44755594Y-28092679D01*
X44566222Y-28031147D01*
X44369563Y-28000000D01*
X44170437Y-28000000D01*
X43973777Y-28031147D01*
X43784405Y-28092679D01*
X43606990Y-28183077D01*
X43569135Y-28210580D01*
X43569135Y-28210581D01*
X44132425Y-28773871D01*
X44073147Y-28789755D01*
X43956853Y-28856898D01*
X43861898Y-28951853D01*
X43794755Y-29068147D01*
X43778871Y-29127425D01*
X43215581Y-28564135D01*
X43215580Y-28564135D01*
X43188077Y-28601990D01*
X43097679Y-28779405D01*
X43036147Y-28968777D01*
X43005000Y-29165436D01*
X43005000Y-29364563D01*
X43036147Y-29561222D01*
X43097679Y-29750594D01*
X43188077Y-29928008D01*
X43215580Y-29965863D01*
X43215581Y-29965864D01*
X43778871Y-29402574D01*
X43794755Y-29461853D01*
X43861898Y-29578147D01*
X43956853Y-29673102D01*
X44073147Y-29740245D01*
X44132425Y-29756128D01*
X43569134Y-30319417D01*
X43606994Y-30346924D01*
X43784405Y-30437320D01*
X43973777Y-30498852D01*
X44060117Y-30512527D01*
X44123252Y-30542456D01*
X44160183Y-30601768D01*
X44159185Y-30671630D01*
X44120575Y-30729863D01*
X44060117Y-30757473D01*
X43973777Y-30771147D01*
X43784405Y-30832679D01*
X43606990Y-30923077D01*
X43569135Y-30950580D01*
X43569135Y-30950581D01*
X44132425Y-31513871D01*
X44073147Y-31529755D01*
X43956853Y-31596898D01*
X43861898Y-31691853D01*
X43794755Y-31808147D01*
X43778871Y-31867425D01*
X43215581Y-31304135D01*
X43215580Y-31304135D01*
X43188077Y-31341990D01*
X43097679Y-31519405D01*
X43036147Y-31708777D01*
X43005000Y-31905436D01*
X43005000Y-32104563D01*
X43036147Y-32301222D01*
X43097679Y-32490594D01*
X43188077Y-32668008D01*
X43215580Y-32705863D01*
X43215581Y-32705864D01*
X43778871Y-32142574D01*
X43794755Y-32201853D01*
X43861898Y-32318147D01*
X43956853Y-32413102D01*
X44073147Y-32480245D01*
X44132425Y-32496128D01*
X43569134Y-33059417D01*
X43606994Y-33086924D01*
X43784405Y-33177320D01*
X43973777Y-33238852D01*
X44060117Y-33252527D01*
X44123252Y-33282456D01*
X44160183Y-33341768D01*
X44159185Y-33411630D01*
X44120575Y-33469863D01*
X44060117Y-33497473D01*
X43973777Y-33511147D01*
X43784405Y-33572679D01*
X43606990Y-33663077D01*
X43569135Y-33690580D01*
X43569135Y-33690581D01*
X44132425Y-34253871D01*
X44073147Y-34269755D01*
X43956853Y-34336898D01*
X43861898Y-34431853D01*
X43794755Y-34548147D01*
X43778871Y-34607425D01*
X43215581Y-34044135D01*
X43215580Y-34044135D01*
X43188077Y-34081990D01*
X43097679Y-34259405D01*
X43036147Y-34448777D01*
X43005000Y-34645436D01*
X43005000Y-34844563D01*
X43036147Y-35041222D01*
X43097679Y-35230594D01*
X43188077Y-35408008D01*
X43215580Y-35445863D01*
X43215581Y-35445864D01*
X43778871Y-34882574D01*
X43794755Y-34941853D01*
X43861898Y-35058147D01*
X43956853Y-35153102D01*
X44073147Y-35220245D01*
X44132425Y-35236128D01*
X43569134Y-35799417D01*
X43606994Y-35826924D01*
X43784405Y-35917320D01*
X43973777Y-35978852D01*
X44060117Y-35992527D01*
X44123252Y-36022456D01*
X44160183Y-36081768D01*
X44159185Y-36151630D01*
X44120575Y-36209863D01*
X44060117Y-36237473D01*
X43973777Y-36251147D01*
X43784405Y-36312679D01*
X43606990Y-36403077D01*
X43569135Y-36430580D01*
X43569135Y-36430581D01*
X44132425Y-36993871D01*
X44073147Y-37009755D01*
X43956853Y-37076898D01*
X43861898Y-37171853D01*
X43794755Y-37288147D01*
X43778871Y-37347425D01*
X43215581Y-36784135D01*
X43215580Y-36784135D01*
X43188077Y-36821990D01*
X43097679Y-36999405D01*
X43036147Y-37188777D01*
X43005000Y-37385436D01*
X43005000Y-37584563D01*
X43036147Y-37781222D01*
X43097679Y-37970594D01*
X43188077Y-38148008D01*
X43215580Y-38185863D01*
X43215581Y-38185864D01*
X43778871Y-37622574D01*
X43794755Y-37681853D01*
X43861898Y-37798147D01*
X43956853Y-37893102D01*
X44073147Y-37960245D01*
X44132425Y-37976128D01*
X43569134Y-38539417D01*
X43606994Y-38566924D01*
X43784405Y-38657320D01*
X43969830Y-38717569D01*
X44027506Y-38757006D01*
X44054704Y-38821365D01*
X44042789Y-38890211D01*
X43995545Y-38941687D01*
X43931512Y-38959500D01*
X43457129Y-38959500D01*
X43457123Y-38959501D01*
X43397516Y-38965908D01*
X43262671Y-39016202D01*
X43262664Y-39016206D01*
X43147455Y-39102452D01*
X43147452Y-39102455D01*
X43061206Y-39217664D01*
X43061202Y-39217671D01*
X43010908Y-39352517D01*
X43004501Y-39412116D01*
X43004501Y-39412123D01*
X43004500Y-39412135D01*
X42566429Y-39412135D01*
X42602785Y-39340783D01*
X42642316Y-39219118D01*
X42664338Y-39151343D01*
X42664338Y-39151342D01*
X42664339Y-39151339D01*
X42695500Y-38954597D01*
X42695500Y-38755403D01*
X42664339Y-38558661D01*
X42664338Y-38558657D01*
X42664338Y-38558656D01*
X42602786Y-38369219D01*
X42544653Y-38255127D01*
X42512353Y-38191734D01*
X42395269Y-38030582D01*
X42254418Y-37889731D01*
X42093266Y-37772647D01*
X41915780Y-37682213D01*
X41726342Y-37620661D01*
X41656723Y-37609634D01*
X41643072Y-37607472D01*
X41579939Y-37577544D01*
X41543007Y-37518233D01*
X41544005Y-37448370D01*
X41582615Y-37390137D01*
X41643072Y-37362527D01*
X41726339Y-37349339D01*
X41726342Y-37349338D01*
X41726343Y-37349338D01*
X41915780Y-37287786D01*
X41915780Y-37287785D01*
X41915783Y-37287785D01*
X42093266Y-37197353D01*
X42254418Y-37080269D01*
X42395269Y-36939418D01*
X42512353Y-36778266D01*
X42602785Y-36600783D01*
X42602786Y-36600780D01*
X42664338Y-36411343D01*
X42664338Y-36411342D01*
X42664339Y-36411339D01*
X42695500Y-36214597D01*
X42695500Y-36015403D01*
X42664339Y-35818661D01*
X42664337Y-35818657D01*
X42664337Y-35818652D01*
X42655182Y-35790475D01*
X42602786Y-35629219D01*
X42512352Y-35451733D01*
X42512261Y-35451608D01*
X42395269Y-35290582D01*
X42254418Y-35149731D01*
X42093266Y-35032647D01*
X42076996Y-35024357D01*
X41915780Y-34942213D01*
X41726342Y-34880661D01*
X41656723Y-34869634D01*
X41643072Y-34867472D01*
X41579939Y-34837544D01*
X41543007Y-34778233D01*
X41544005Y-34708370D01*
X41582615Y-34650137D01*
X41643072Y-34622527D01*
X41726339Y-34609339D01*
X41726342Y-34609338D01*
X41726343Y-34609338D01*
X41915780Y-34547786D01*
X41915780Y-34547785D01*
X41915783Y-34547785D01*
X42093266Y-34457353D01*
X42254418Y-34340269D01*
X42395269Y-34199418D01*
X42512353Y-34038266D01*
X42602785Y-33860783D01*
X42658087Y-33690581D01*
X42664338Y-33671343D01*
X42664338Y-33671342D01*
X42664339Y-33671339D01*
X42695500Y-33474597D01*
X42695500Y-33275403D01*
X42664339Y-33078661D01*
X42664337Y-33078657D01*
X42664337Y-33078652D01*
X42655182Y-33050475D01*
X42602786Y-32889219D01*
X42512352Y-32711733D01*
X42480584Y-32668008D01*
X42395269Y-32550582D01*
X42254418Y-32409731D01*
X42093266Y-32292647D01*
X41915780Y-32202213D01*
X41726342Y-32140661D01*
X41656723Y-32129634D01*
X41643072Y-32127472D01*
X41579939Y-32097544D01*
X41543007Y-32038233D01*
X41544005Y-31968370D01*
X41582615Y-31910137D01*
X41643072Y-31882527D01*
X41726339Y-31869339D01*
X41726342Y-31869338D01*
X41726343Y-31869338D01*
X41915780Y-31807786D01*
X41915780Y-31807785D01*
X41915783Y-31807785D01*
X42093266Y-31717353D01*
X42254418Y-31600269D01*
X42395269Y-31459418D01*
X42512353Y-31298266D01*
X42602785Y-31120783D01*
X42658087Y-30950581D01*
X42664338Y-30931343D01*
X42664338Y-30931342D01*
X42664339Y-30931339D01*
X42695500Y-30734597D01*
X42695500Y-30535403D01*
X42664339Y-30338661D01*
X42664337Y-30338657D01*
X42664337Y-30338652D01*
X42655182Y-30310475D01*
X42602786Y-30149219D01*
X42512352Y-29971733D01*
X42480584Y-29928008D01*
X42395269Y-29810582D01*
X42254418Y-29669731D01*
X42093266Y-29552647D01*
X41915780Y-29462213D01*
X41726342Y-29400661D01*
X41578782Y-29377290D01*
X41529597Y-29369500D01*
X41330403Y-29369500D01*
X41264822Y-29379887D01*
X41133659Y-29400661D01*
X41133656Y-29400661D01*
X40944219Y-29462213D01*
X40766733Y-29552647D01*
X40731636Y-29578147D01*
X40605582Y-29669731D01*
X40605580Y-29669733D01*
X40605579Y-29669733D01*
X40464733Y-29810579D01*
X40464733Y-29810580D01*
X40464731Y-29810582D01*
X40414447Y-29879790D01*
X40347647Y-29971733D01*
X40257213Y-30149219D01*
X40195661Y-30338656D01*
X40195661Y-30338659D01*
X40164500Y-30535403D01*
X33650500Y-30535403D01*
X33650500Y-22087975D01*
X39965000Y-22087975D01*
X39965000Y-22412024D01*
X40001277Y-22734002D01*
X40001280Y-22734016D01*
X40073384Y-23049928D01*
X40073388Y-23049940D01*
X40180405Y-23355774D01*
X40180411Y-23355788D01*
X40321000Y-23647725D01*
X40493398Y-23922095D01*
X40640228Y-24106216D01*
X41562906Y-23183538D01*
X41637216Y-23285816D01*
X41814184Y-23462784D01*
X41916460Y-23537092D01*
X40993782Y-24459770D01*
X41177904Y-24606601D01*
X41452274Y-24778999D01*
X41744211Y-24919588D01*
X41744225Y-24919594D01*
X42050059Y-25026611D01*
X42050071Y-25026615D01*
X42365983Y-25098719D01*
X42365997Y-25098722D01*
X42687975Y-25134999D01*
X42687979Y-25135000D01*
X43012021Y-25135000D01*
X43012024Y-25134999D01*
X43334002Y-25098722D01*
X43334016Y-25098719D01*
X43649928Y-25026615D01*
X43649940Y-25026611D01*
X43955774Y-24919594D01*
X43955788Y-24919588D01*
X44247725Y-24778999D01*
X44522095Y-24606601D01*
X44706216Y-24459770D01*
X43783538Y-23537092D01*
X43885816Y-23462784D01*
X44062784Y-23285816D01*
X44137092Y-23183538D01*
X45059770Y-24106216D01*
X45206601Y-23922095D01*
X45378999Y-23647725D01*
X45519588Y-23355788D01*
X45519594Y-23355774D01*
X45626611Y-23049940D01*
X45626615Y-23049928D01*
X45698719Y-22734016D01*
X45698722Y-22734002D01*
X45734999Y-22412024D01*
X45735000Y-22412020D01*
X45735000Y-22087979D01*
X45734999Y-22087975D01*
X45698722Y-21765997D01*
X45698719Y-21765983D01*
X45626615Y-21450071D01*
X45626611Y-21450059D01*
X45519594Y-21144225D01*
X45519588Y-21144211D01*
X45378999Y-20852274D01*
X45206601Y-20577904D01*
X45059770Y-20393782D01*
X44137092Y-21316460D01*
X44062784Y-21214184D01*
X43885816Y-21037216D01*
X43783538Y-20962907D01*
X44706216Y-20040228D01*
X44522095Y-19893398D01*
X44247725Y-19721000D01*
X43955788Y-19580411D01*
X43955774Y-19580405D01*
X43649940Y-19473388D01*
X43649928Y-19473384D01*
X43334016Y-19401280D01*
X43334002Y-19401277D01*
X43012024Y-19365000D01*
X42687975Y-19365000D01*
X42365997Y-19401277D01*
X42365983Y-19401280D01*
X42050071Y-19473384D01*
X42050059Y-19473388D01*
X41744225Y-19580405D01*
X41744211Y-19580411D01*
X41452274Y-19721000D01*
X41177904Y-19893398D01*
X40993782Y-20040228D01*
X41916461Y-20962907D01*
X41814184Y-21037216D01*
X41637216Y-21214184D01*
X41562907Y-21316461D01*
X40640228Y-20393782D01*
X40493398Y-20577904D01*
X40321000Y-20852274D01*
X40180411Y-21144211D01*
X40180405Y-21144225D01*
X40073388Y-21450059D01*
X40073384Y-21450071D01*
X40001280Y-21765983D01*
X40001277Y-21765997D01*
X39965000Y-22087975D01*
X33650500Y-22087975D01*
X33650500Y-18774500D01*
X33670185Y-18707461D01*
X33722989Y-18661706D01*
X33774500Y-18650500D01*
X78375500Y-18650500D01*
X78442539Y-18670185D01*
G37*
G04 #@! TD.AperFunction*
M02*
