G04 #@! TF.GenerationSoftware,KiCad,Pcbnew,9.0.6*
G04 #@! TF.CreationDate,2026-02-17T21:16:07-05:00*
G04 #@! TF.ProjectId,dvrk-ios,6476726b-2d69-46f7-932e-6b696361645f,rev?*
G04 #@! TF.SameCoordinates,Original*
G04 #@! TF.FileFunction,Soldermask,Top*
G04 #@! TF.FilePolarity,Negative*
%FSLAX46Y46*%
G04 Gerber Fmt 4.6, Leading zero omitted, Abs format (unit mm)*
G04 Created by KiCad (PCBNEW 9.0.6) date 2026-02-17 21:16:07*
%MOMM*%
%LPD*%
G01*
G04 APERTURE LIST*
G04 Aperture macros list*
%AMRoundRect*
0 Rectangle with rounded corners*
0 $1 Rounding radius*
0 $2 $3 $4 $5 $6 $7 $8 $9 X,Y pos of 4 corners*
0 Add a 4 corners polygon primitive as box body*
4,1,4,$2,$3,$4,$5,$6,$7,$8,$9,$2,$3,0*
0 Add four circle primitives for the rounded corners*
1,1,$1+$1,$2,$3*
1,1,$1+$1,$4,$5*
1,1,$1+$1,$6,$7*
1,1,$1+$1,$8,$9*
0 Add four rect primitives between the rounded corners*
20,1,$1+$1,$2,$3,$4,$5,0*
20,1,$1+$1,$4,$5,$6,$7,0*
20,1,$1+$1,$6,$7,$8,$9,0*
20,1,$1+$1,$8,$9,$2,$3,0*%
G04 Aperture macros list end*
%ADD10R,1.575000X1.575000*%
%ADD11C,1.575000*%
%ADD12RoundRect,0.225000X0.250000X-0.225000X0.250000X0.225000X-0.250000X0.225000X-0.250000X-0.225000X0*%
%ADD13R,1.150000X0.600000*%
%ADD14RoundRect,0.200000X-0.275000X0.200000X-0.275000X-0.200000X0.275000X-0.200000X0.275000X0.200000X0*%
%ADD15RoundRect,0.225000X-0.250000X0.225000X-0.250000X-0.225000X0.250000X-0.225000X0.250000X0.225000X0*%
%ADD16R,1.530000X1.530000*%
%ADD17C,1.530000*%
%ADD18C,4.770000*%
%ADD19R,1.450000X1.100001*%
%ADD20R,0.977900X0.508000*%
%ADD21RoundRect,0.200000X0.275000X-0.200000X0.275000X0.200000X-0.275000X0.200000X-0.275000X-0.200000X0*%
G04 APERTURE END LIST*
D10*
X68150000Y-39150000D03*
D11*
X70150000Y-39150000D03*
X68150000Y-37150000D03*
X70150000Y-37150000D03*
X68150000Y-35150000D03*
X70150000Y-35150000D03*
D12*
X52300000Y-46450000D03*
X52300000Y-44900000D03*
D13*
X61850000Y-34650000D03*
X61850000Y-35600000D03*
X61850000Y-36550000D03*
X64350000Y-36550000D03*
X64350000Y-35600000D03*
X64350000Y-34650000D03*
D14*
X63869950Y-39005050D03*
X63869950Y-40655050D03*
X52519950Y-39030050D03*
X52519950Y-40680050D03*
D15*
X58597249Y-44662499D03*
X58597249Y-46212499D03*
D16*
X44270000Y-40225000D03*
D17*
X44270000Y-37485000D03*
X44270000Y-34745000D03*
X44270000Y-32005000D03*
X44270000Y-29265000D03*
X41430000Y-38855000D03*
X41430000Y-36115000D03*
X41430000Y-33375000D03*
X41430000Y-30635000D03*
D18*
X42850000Y-47240000D03*
X42850000Y-22250000D03*
D19*
X60400000Y-22150000D03*
X60400000Y-24450000D03*
D14*
X60069950Y-38980050D03*
X60069950Y-40630050D03*
D20*
X56862499Y-46487500D03*
X56862499Y-45537499D03*
X56862499Y-44587498D03*
X54131999Y-44587498D03*
X54131999Y-46487500D03*
D15*
X62200000Y-44650000D03*
X62200000Y-46200000D03*
D21*
X65025000Y-24125000D03*
X65025000Y-22475000D03*
D15*
X60400000Y-44650000D03*
X60400000Y-46200000D03*
D14*
X56769950Y-38980050D03*
X56769950Y-40630050D03*
M02*
