%TF.GenerationSoftware,KiCad,Pcbnew,9.0.5*%
%TF.CreationDate,2025-11-05T10:26:17-05:00*%
%TF.ProjectId,dvrk-ios,6476726b-2d69-46f7-932e-6b696361645f,rev?*%
%TF.SameCoordinates,Original*%
%TF.FileFunction,Drillmap*%
%TF.FilePolarity,Positive*%
%FSLAX45Y45*%
G04 Gerber Fmt 4.5, Leading zero omitted, Abs format (unit mm)*
G04 Created by KiCad (PCBNEW 9.0.5) date 2025-11-05 10:26:17*
%MOMM*%
%LPD*%
G01*
G04 APERTURE LIST*
%ADD10C,0.050000*%
%ADD11C,0.200000*%
%ADD12C,0.100000*%
%ADD13C,0.102000*%
%ADD14C,0.105000*%
%ADD15C,0.318000*%
G04 APERTURE END LIST*
D10*
X7890000Y-5125000D02*
X7890000Y-5090000D01*
X3325000Y-5125000D02*
X3325000Y-1825000D01*
X3325000Y-1825000D02*
X7890000Y-1825000D01*
X7890000Y-1825000D02*
X7890000Y-5090000D01*
X3350000Y-5125000D02*
X3325000Y-5125000D01*
X7890000Y-5125000D02*
X3350000Y-5125000D01*
D11*
D12*
X5175000Y-4730000D02*
X5205000Y-4760000D01*
X5205000Y-4730000D02*
X5175000Y-4760000D01*
X5766606Y-4487627D02*
X5796606Y-4517627D01*
X5796606Y-4487627D02*
X5766606Y-4517627D01*
X5995000Y-3520000D02*
X6025000Y-3550000D01*
X6025000Y-3520000D02*
X5995000Y-3550000D01*
X6110000Y-4435000D02*
X6140000Y-4465000D01*
X6140000Y-4435000D02*
X6110000Y-4465000D01*
X6570000Y-3585000D02*
X6600000Y-3615000D01*
X6600000Y-3585000D02*
X6570000Y-3615000D01*
D13*
X4194000Y-3063500D02*
G75*
G02*
X4092000Y-3063500I-51000J0D01*
G01*
X4092000Y-3063500D02*
G75*
G02*
X4194000Y-3063500I51000J0D01*
G01*
X4194000Y-3337500D02*
G75*
G02*
X4092000Y-3337500I-51000J0D01*
G01*
X4092000Y-3337500D02*
G75*
G02*
X4194000Y-3337500I51000J0D01*
G01*
X4194000Y-3611500D02*
G75*
G02*
X4092000Y-3611500I-51000J0D01*
G01*
X4092000Y-3611500D02*
G75*
G02*
X4194000Y-3611500I51000J0D01*
G01*
X4194000Y-3885500D02*
G75*
G02*
X4092000Y-3885500I-51000J0D01*
G01*
X4092000Y-3885500D02*
G75*
G02*
X4194000Y-3885500I51000J0D01*
G01*
X4478000Y-2926500D02*
G75*
G02*
X4376000Y-2926500I-51000J0D01*
G01*
X4376000Y-2926500D02*
G75*
G02*
X4478000Y-2926500I51000J0D01*
G01*
X4478000Y-3200500D02*
G75*
G02*
X4376000Y-3200500I-51000J0D01*
G01*
X4376000Y-3200500D02*
G75*
G02*
X4478000Y-3200500I51000J0D01*
G01*
X4478000Y-3474500D02*
G75*
G02*
X4376000Y-3474500I-51000J0D01*
G01*
X4376000Y-3474500D02*
G75*
G02*
X4478000Y-3474500I51000J0D01*
G01*
X4478000Y-3748500D02*
G75*
G02*
X4376000Y-3748500I-51000J0D01*
G01*
X4376000Y-3748500D02*
G75*
G02*
X4478000Y-3748500I51000J0D01*
G01*
X4478000Y-4022500D02*
G75*
G02*
X4376000Y-4022500I-51000J0D01*
G01*
X4376000Y-4022500D02*
G75*
G02*
X4478000Y-4022500I51000J0D01*
G01*
D14*
X6815000Y-3462500D02*
X6815000Y-3567500D01*
X6762500Y-3515000D02*
X6867500Y-3515000D01*
X6815000Y-3662500D02*
X6815000Y-3767500D01*
X6762500Y-3715000D02*
X6867500Y-3715000D01*
X6815000Y-3862500D02*
X6815000Y-3967500D01*
X6762500Y-3915000D02*
X6867500Y-3915000D01*
X7015000Y-3462500D02*
X7015000Y-3567500D01*
X6962500Y-3515000D02*
X7067500Y-3515000D01*
X7015000Y-3662500D02*
X7015000Y-3767500D01*
X6962500Y-3715000D02*
X7067500Y-3715000D01*
X7015000Y-3862500D02*
X7015000Y-3967500D01*
X6962500Y-3915000D02*
X7067500Y-3915000D01*
D15*
X4397431Y-2337431D02*
X4397431Y-2112569D01*
X4172569Y-2112569D01*
X4172569Y-2337431D01*
X4397431Y-2337431D01*
X4397431Y-4836431D02*
X4397431Y-4611569D01*
X4172569Y-4611569D01*
X4172569Y-4836431D01*
X4397431Y-4836431D01*
D11*
X3583277Y-5438984D02*
X3583277Y-5238984D01*
X3583277Y-5238984D02*
X3630896Y-5238984D01*
X3630896Y-5238984D02*
X3659467Y-5248508D01*
X3659467Y-5248508D02*
X3678515Y-5267555D01*
X3678515Y-5267555D02*
X3688039Y-5286603D01*
X3688039Y-5286603D02*
X3697562Y-5324698D01*
X3697562Y-5324698D02*
X3697562Y-5353270D01*
X3697562Y-5353270D02*
X3688039Y-5391365D01*
X3688039Y-5391365D02*
X3678515Y-5410412D01*
X3678515Y-5410412D02*
X3659467Y-5429460D01*
X3659467Y-5429460D02*
X3630896Y-5438984D01*
X3630896Y-5438984D02*
X3583277Y-5438984D01*
X3783277Y-5438984D02*
X3783277Y-5305650D01*
X3783277Y-5343746D02*
X3792801Y-5324698D01*
X3792801Y-5324698D02*
X3802324Y-5315174D01*
X3802324Y-5315174D02*
X3821372Y-5305650D01*
X3821372Y-5305650D02*
X3840420Y-5305650D01*
X3907086Y-5438984D02*
X3907086Y-5305650D01*
X3907086Y-5238984D02*
X3897562Y-5248508D01*
X3897562Y-5248508D02*
X3907086Y-5258031D01*
X3907086Y-5258031D02*
X3916610Y-5248508D01*
X3916610Y-5248508D02*
X3907086Y-5238984D01*
X3907086Y-5238984D02*
X3907086Y-5258031D01*
X4030896Y-5438984D02*
X4011848Y-5429460D01*
X4011848Y-5429460D02*
X4002324Y-5410412D01*
X4002324Y-5410412D02*
X4002324Y-5238984D01*
X4135658Y-5438984D02*
X4116610Y-5429460D01*
X4116610Y-5429460D02*
X4107086Y-5410412D01*
X4107086Y-5410412D02*
X4107086Y-5238984D01*
X4364229Y-5438984D02*
X4364229Y-5238984D01*
X4364229Y-5238984D02*
X4430896Y-5381841D01*
X4430896Y-5381841D02*
X4497563Y-5238984D01*
X4497563Y-5238984D02*
X4497563Y-5438984D01*
X4678515Y-5438984D02*
X4678515Y-5334222D01*
X4678515Y-5334222D02*
X4668991Y-5315174D01*
X4668991Y-5315174D02*
X4649944Y-5305650D01*
X4649944Y-5305650D02*
X4611848Y-5305650D01*
X4611848Y-5305650D02*
X4592801Y-5315174D01*
X4678515Y-5429460D02*
X4659467Y-5438984D01*
X4659467Y-5438984D02*
X4611848Y-5438984D01*
X4611848Y-5438984D02*
X4592801Y-5429460D01*
X4592801Y-5429460D02*
X4583277Y-5410412D01*
X4583277Y-5410412D02*
X4583277Y-5391365D01*
X4583277Y-5391365D02*
X4592801Y-5372317D01*
X4592801Y-5372317D02*
X4611848Y-5362793D01*
X4611848Y-5362793D02*
X4659467Y-5362793D01*
X4659467Y-5362793D02*
X4678515Y-5353270D01*
X4773753Y-5305650D02*
X4773753Y-5505650D01*
X4773753Y-5315174D02*
X4792801Y-5305650D01*
X4792801Y-5305650D02*
X4830896Y-5305650D01*
X4830896Y-5305650D02*
X4849944Y-5315174D01*
X4849944Y-5315174D02*
X4859467Y-5324698D01*
X4859467Y-5324698D02*
X4868991Y-5343746D01*
X4868991Y-5343746D02*
X4868991Y-5400889D01*
X4868991Y-5400889D02*
X4859467Y-5419936D01*
X4859467Y-5419936D02*
X4849944Y-5429460D01*
X4849944Y-5429460D02*
X4830896Y-5438984D01*
X4830896Y-5438984D02*
X4792801Y-5438984D01*
X4792801Y-5438984D02*
X4773753Y-5429460D01*
X4954705Y-5419936D02*
X4964229Y-5429460D01*
X4964229Y-5429460D02*
X4954705Y-5438984D01*
X4954705Y-5438984D02*
X4945182Y-5429460D01*
X4945182Y-5429460D02*
X4954705Y-5419936D01*
X4954705Y-5419936D02*
X4954705Y-5438984D01*
X4954705Y-5315174D02*
X4964229Y-5324698D01*
X4964229Y-5324698D02*
X4954705Y-5334222D01*
X4954705Y-5334222D02*
X4945182Y-5324698D01*
X4945182Y-5324698D02*
X4954705Y-5315174D01*
X4954705Y-5315174D02*
X4954705Y-5334222D01*
D12*
X3292500Y-5752500D02*
X3322500Y-5782500D01*
X3322500Y-5752500D02*
X3292500Y-5782500D01*
D11*
X3621372Y-5658984D02*
X3640420Y-5658984D01*
X3640420Y-5658984D02*
X3659467Y-5668508D01*
X3659467Y-5668508D02*
X3668991Y-5678031D01*
X3668991Y-5678031D02*
X3678515Y-5697079D01*
X3678515Y-5697079D02*
X3688039Y-5735174D01*
X3688039Y-5735174D02*
X3688039Y-5782793D01*
X3688039Y-5782793D02*
X3678515Y-5820888D01*
X3678515Y-5820888D02*
X3668991Y-5839936D01*
X3668991Y-5839936D02*
X3659467Y-5849460D01*
X3659467Y-5849460D02*
X3640420Y-5858984D01*
X3640420Y-5858984D02*
X3621372Y-5858984D01*
X3621372Y-5858984D02*
X3602324Y-5849460D01*
X3602324Y-5849460D02*
X3592801Y-5839936D01*
X3592801Y-5839936D02*
X3583277Y-5820888D01*
X3583277Y-5820888D02*
X3573753Y-5782793D01*
X3573753Y-5782793D02*
X3573753Y-5735174D01*
X3573753Y-5735174D02*
X3583277Y-5697079D01*
X3583277Y-5697079D02*
X3592801Y-5678031D01*
X3592801Y-5678031D02*
X3602324Y-5668508D01*
X3602324Y-5668508D02*
X3621372Y-5658984D01*
X3773753Y-5839936D02*
X3783277Y-5849460D01*
X3783277Y-5849460D02*
X3773753Y-5858984D01*
X3773753Y-5858984D02*
X3764229Y-5849460D01*
X3764229Y-5849460D02*
X3773753Y-5839936D01*
X3773753Y-5839936D02*
X3773753Y-5858984D01*
X3849943Y-5658984D02*
X3973753Y-5658984D01*
X3973753Y-5658984D02*
X3907086Y-5735174D01*
X3907086Y-5735174D02*
X3935658Y-5735174D01*
X3935658Y-5735174D02*
X3954705Y-5744698D01*
X3954705Y-5744698D02*
X3964229Y-5754222D01*
X3964229Y-5754222D02*
X3973753Y-5773269D01*
X3973753Y-5773269D02*
X3973753Y-5820888D01*
X3973753Y-5820888D02*
X3964229Y-5839936D01*
X3964229Y-5839936D02*
X3954705Y-5849460D01*
X3954705Y-5849460D02*
X3935658Y-5858984D01*
X3935658Y-5858984D02*
X3878515Y-5858984D01*
X3878515Y-5858984D02*
X3859467Y-5849460D01*
X3859467Y-5849460D02*
X3849943Y-5839936D01*
X4097562Y-5658984D02*
X4116610Y-5658984D01*
X4116610Y-5658984D02*
X4135658Y-5668508D01*
X4135658Y-5668508D02*
X4145182Y-5678031D01*
X4145182Y-5678031D02*
X4154705Y-5697079D01*
X4154705Y-5697079D02*
X4164229Y-5735174D01*
X4164229Y-5735174D02*
X4164229Y-5782793D01*
X4164229Y-5782793D02*
X4154705Y-5820888D01*
X4154705Y-5820888D02*
X4145182Y-5839936D01*
X4145182Y-5839936D02*
X4135658Y-5849460D01*
X4135658Y-5849460D02*
X4116610Y-5858984D01*
X4116610Y-5858984D02*
X4097562Y-5858984D01*
X4097562Y-5858984D02*
X4078515Y-5849460D01*
X4078515Y-5849460D02*
X4068991Y-5839936D01*
X4068991Y-5839936D02*
X4059467Y-5820888D01*
X4059467Y-5820888D02*
X4049943Y-5782793D01*
X4049943Y-5782793D02*
X4049943Y-5735174D01*
X4049943Y-5735174D02*
X4059467Y-5697079D01*
X4059467Y-5697079D02*
X4068991Y-5678031D01*
X4068991Y-5678031D02*
X4078515Y-5668508D01*
X4078515Y-5668508D02*
X4097562Y-5658984D01*
X4288039Y-5658984D02*
X4307086Y-5658984D01*
X4307086Y-5658984D02*
X4326134Y-5668508D01*
X4326134Y-5668508D02*
X4335658Y-5678031D01*
X4335658Y-5678031D02*
X4345182Y-5697079D01*
X4345182Y-5697079D02*
X4354705Y-5735174D01*
X4354705Y-5735174D02*
X4354705Y-5782793D01*
X4354705Y-5782793D02*
X4345182Y-5820888D01*
X4345182Y-5820888D02*
X4335658Y-5839936D01*
X4335658Y-5839936D02*
X4326134Y-5849460D01*
X4326134Y-5849460D02*
X4307086Y-5858984D01*
X4307086Y-5858984D02*
X4288039Y-5858984D01*
X4288039Y-5858984D02*
X4268991Y-5849460D01*
X4268991Y-5849460D02*
X4259467Y-5839936D01*
X4259467Y-5839936D02*
X4249944Y-5820888D01*
X4249944Y-5820888D02*
X4240420Y-5782793D01*
X4240420Y-5782793D02*
X4240420Y-5735174D01*
X4240420Y-5735174D02*
X4249944Y-5697079D01*
X4249944Y-5697079D02*
X4259467Y-5678031D01*
X4259467Y-5678031D02*
X4268991Y-5668508D01*
X4268991Y-5668508D02*
X4288039Y-5658984D01*
X4440420Y-5858984D02*
X4440420Y-5725650D01*
X4440420Y-5744698D02*
X4449944Y-5735174D01*
X4449944Y-5735174D02*
X4468991Y-5725650D01*
X4468991Y-5725650D02*
X4497563Y-5725650D01*
X4497563Y-5725650D02*
X4516610Y-5735174D01*
X4516610Y-5735174D02*
X4526134Y-5754222D01*
X4526134Y-5754222D02*
X4526134Y-5858984D01*
X4526134Y-5754222D02*
X4535658Y-5735174D01*
X4535658Y-5735174D02*
X4554705Y-5725650D01*
X4554705Y-5725650D02*
X4583277Y-5725650D01*
X4583277Y-5725650D02*
X4602325Y-5735174D01*
X4602325Y-5735174D02*
X4611848Y-5754222D01*
X4611848Y-5754222D02*
X4611848Y-5858984D01*
X4707086Y-5858984D02*
X4707086Y-5725650D01*
X4707086Y-5744698D02*
X4716610Y-5735174D01*
X4716610Y-5735174D02*
X4735658Y-5725650D01*
X4735658Y-5725650D02*
X4764229Y-5725650D01*
X4764229Y-5725650D02*
X4783277Y-5735174D01*
X4783277Y-5735174D02*
X4792801Y-5754222D01*
X4792801Y-5754222D02*
X4792801Y-5858984D01*
X4792801Y-5754222D02*
X4802325Y-5735174D01*
X4802325Y-5735174D02*
X4821372Y-5725650D01*
X4821372Y-5725650D02*
X4849944Y-5725650D01*
X4849944Y-5725650D02*
X4868991Y-5735174D01*
X4868991Y-5735174D02*
X4878515Y-5754222D01*
X4878515Y-5754222D02*
X4878515Y-5858984D01*
X5268991Y-5649460D02*
X5097563Y-5906603D01*
X5526134Y-5658984D02*
X5545182Y-5658984D01*
X5545182Y-5658984D02*
X5564229Y-5668508D01*
X5564229Y-5668508D02*
X5573753Y-5678031D01*
X5573753Y-5678031D02*
X5583277Y-5697079D01*
X5583277Y-5697079D02*
X5592801Y-5735174D01*
X5592801Y-5735174D02*
X5592801Y-5782793D01*
X5592801Y-5782793D02*
X5583277Y-5820888D01*
X5583277Y-5820888D02*
X5573753Y-5839936D01*
X5573753Y-5839936D02*
X5564229Y-5849460D01*
X5564229Y-5849460D02*
X5545182Y-5858984D01*
X5545182Y-5858984D02*
X5526134Y-5858984D01*
X5526134Y-5858984D02*
X5507087Y-5849460D01*
X5507087Y-5849460D02*
X5497563Y-5839936D01*
X5497563Y-5839936D02*
X5488039Y-5820888D01*
X5488039Y-5820888D02*
X5478515Y-5782793D01*
X5478515Y-5782793D02*
X5478515Y-5735174D01*
X5478515Y-5735174D02*
X5488039Y-5697079D01*
X5488039Y-5697079D02*
X5497563Y-5678031D01*
X5497563Y-5678031D02*
X5507087Y-5668508D01*
X5507087Y-5668508D02*
X5526134Y-5658984D01*
X5678515Y-5839936D02*
X5688039Y-5849460D01*
X5688039Y-5849460D02*
X5678515Y-5858984D01*
X5678515Y-5858984D02*
X5668991Y-5849460D01*
X5668991Y-5849460D02*
X5678515Y-5839936D01*
X5678515Y-5839936D02*
X5678515Y-5858984D01*
X5811848Y-5658984D02*
X5830896Y-5658984D01*
X5830896Y-5658984D02*
X5849944Y-5668508D01*
X5849944Y-5668508D02*
X5859467Y-5678031D01*
X5859467Y-5678031D02*
X5868991Y-5697079D01*
X5868991Y-5697079D02*
X5878515Y-5735174D01*
X5878515Y-5735174D02*
X5878515Y-5782793D01*
X5878515Y-5782793D02*
X5868991Y-5820888D01*
X5868991Y-5820888D02*
X5859467Y-5839936D01*
X5859467Y-5839936D02*
X5849944Y-5849460D01*
X5849944Y-5849460D02*
X5830896Y-5858984D01*
X5830896Y-5858984D02*
X5811848Y-5858984D01*
X5811848Y-5858984D02*
X5792801Y-5849460D01*
X5792801Y-5849460D02*
X5783277Y-5839936D01*
X5783277Y-5839936D02*
X5773753Y-5820888D01*
X5773753Y-5820888D02*
X5764229Y-5782793D01*
X5764229Y-5782793D02*
X5764229Y-5735174D01*
X5764229Y-5735174D02*
X5773753Y-5697079D01*
X5773753Y-5697079D02*
X5783277Y-5678031D01*
X5783277Y-5678031D02*
X5792801Y-5668508D01*
X5792801Y-5668508D02*
X5811848Y-5658984D01*
X6068991Y-5858984D02*
X5954706Y-5858984D01*
X6011848Y-5858984D02*
X6011848Y-5658984D01*
X6011848Y-5658984D02*
X5992801Y-5687555D01*
X5992801Y-5687555D02*
X5973753Y-5706603D01*
X5973753Y-5706603D02*
X5954706Y-5716127D01*
X6259467Y-5858984D02*
X6145182Y-5858984D01*
X6202325Y-5858984D02*
X6202325Y-5658984D01*
X6202325Y-5658984D02*
X6183277Y-5687555D01*
X6183277Y-5687555D02*
X6164229Y-5706603D01*
X6164229Y-5706603D02*
X6145182Y-5716127D01*
X6373753Y-5744698D02*
X6354706Y-5735174D01*
X6354706Y-5735174D02*
X6345182Y-5725650D01*
X6345182Y-5725650D02*
X6335658Y-5706603D01*
X6335658Y-5706603D02*
X6335658Y-5697079D01*
X6335658Y-5697079D02*
X6345182Y-5678031D01*
X6345182Y-5678031D02*
X6354706Y-5668508D01*
X6354706Y-5668508D02*
X6373753Y-5658984D01*
X6373753Y-5658984D02*
X6411848Y-5658984D01*
X6411848Y-5658984D02*
X6430896Y-5668508D01*
X6430896Y-5668508D02*
X6440420Y-5678031D01*
X6440420Y-5678031D02*
X6449944Y-5697079D01*
X6449944Y-5697079D02*
X6449944Y-5706603D01*
X6449944Y-5706603D02*
X6440420Y-5725650D01*
X6440420Y-5725650D02*
X6430896Y-5735174D01*
X6430896Y-5735174D02*
X6411848Y-5744698D01*
X6411848Y-5744698D02*
X6373753Y-5744698D01*
X6373753Y-5744698D02*
X6354706Y-5754222D01*
X6354706Y-5754222D02*
X6345182Y-5763746D01*
X6345182Y-5763746D02*
X6335658Y-5782793D01*
X6335658Y-5782793D02*
X6335658Y-5820888D01*
X6335658Y-5820888D02*
X6345182Y-5839936D01*
X6345182Y-5839936D02*
X6354706Y-5849460D01*
X6354706Y-5849460D02*
X6373753Y-5858984D01*
X6373753Y-5858984D02*
X6411848Y-5858984D01*
X6411848Y-5858984D02*
X6430896Y-5849460D01*
X6430896Y-5849460D02*
X6440420Y-5839936D01*
X6440420Y-5839936D02*
X6449944Y-5820888D01*
X6449944Y-5820888D02*
X6449944Y-5782793D01*
X6449944Y-5782793D02*
X6440420Y-5763746D01*
X6440420Y-5763746D02*
X6430896Y-5754222D01*
X6430896Y-5754222D02*
X6411848Y-5744698D01*
X6526134Y-5658984D02*
X6526134Y-5697079D01*
X6602325Y-5658984D02*
X6602325Y-5697079D01*
X6897563Y-5935174D02*
X6888039Y-5925650D01*
X6888039Y-5925650D02*
X6868991Y-5897079D01*
X6868991Y-5897079D02*
X6859468Y-5878031D01*
X6859468Y-5878031D02*
X6849944Y-5849460D01*
X6849944Y-5849460D02*
X6840420Y-5801841D01*
X6840420Y-5801841D02*
X6840420Y-5763746D01*
X6840420Y-5763746D02*
X6849944Y-5716127D01*
X6849944Y-5716127D02*
X6859468Y-5687555D01*
X6859468Y-5687555D02*
X6868991Y-5668508D01*
X6868991Y-5668508D02*
X6888039Y-5639936D01*
X6888039Y-5639936D02*
X6897563Y-5630412D01*
X7068991Y-5658984D02*
X6973753Y-5658984D01*
X6973753Y-5658984D02*
X6964229Y-5754222D01*
X6964229Y-5754222D02*
X6973753Y-5744698D01*
X6973753Y-5744698D02*
X6992801Y-5735174D01*
X6992801Y-5735174D02*
X7040420Y-5735174D01*
X7040420Y-5735174D02*
X7059468Y-5744698D01*
X7059468Y-5744698D02*
X7068991Y-5754222D01*
X7068991Y-5754222D02*
X7078515Y-5773269D01*
X7078515Y-5773269D02*
X7078515Y-5820888D01*
X7078515Y-5820888D02*
X7068991Y-5839936D01*
X7068991Y-5839936D02*
X7059468Y-5849460D01*
X7059468Y-5849460D02*
X7040420Y-5858984D01*
X7040420Y-5858984D02*
X6992801Y-5858984D01*
X6992801Y-5858984D02*
X6973753Y-5849460D01*
X6973753Y-5849460D02*
X6964229Y-5839936D01*
X7316610Y-5858984D02*
X7316610Y-5658984D01*
X7402325Y-5858984D02*
X7402325Y-5754222D01*
X7402325Y-5754222D02*
X7392801Y-5735174D01*
X7392801Y-5735174D02*
X7373753Y-5725650D01*
X7373753Y-5725650D02*
X7345182Y-5725650D01*
X7345182Y-5725650D02*
X7326134Y-5735174D01*
X7326134Y-5735174D02*
X7316610Y-5744698D01*
X7526134Y-5858984D02*
X7507087Y-5849460D01*
X7507087Y-5849460D02*
X7497563Y-5839936D01*
X7497563Y-5839936D02*
X7488039Y-5820888D01*
X7488039Y-5820888D02*
X7488039Y-5763746D01*
X7488039Y-5763746D02*
X7497563Y-5744698D01*
X7497563Y-5744698D02*
X7507087Y-5735174D01*
X7507087Y-5735174D02*
X7526134Y-5725650D01*
X7526134Y-5725650D02*
X7554706Y-5725650D01*
X7554706Y-5725650D02*
X7573753Y-5735174D01*
X7573753Y-5735174D02*
X7583277Y-5744698D01*
X7583277Y-5744698D02*
X7592801Y-5763746D01*
X7592801Y-5763746D02*
X7592801Y-5820888D01*
X7592801Y-5820888D02*
X7583277Y-5839936D01*
X7583277Y-5839936D02*
X7573753Y-5849460D01*
X7573753Y-5849460D02*
X7554706Y-5858984D01*
X7554706Y-5858984D02*
X7526134Y-5858984D01*
X7707087Y-5858984D02*
X7688039Y-5849460D01*
X7688039Y-5849460D02*
X7678515Y-5830412D01*
X7678515Y-5830412D02*
X7678515Y-5658984D01*
X7859468Y-5849460D02*
X7840420Y-5858984D01*
X7840420Y-5858984D02*
X7802325Y-5858984D01*
X7802325Y-5858984D02*
X7783277Y-5849460D01*
X7783277Y-5849460D02*
X7773753Y-5830412D01*
X7773753Y-5830412D02*
X7773753Y-5754222D01*
X7773753Y-5754222D02*
X7783277Y-5735174D01*
X7783277Y-5735174D02*
X7802325Y-5725650D01*
X7802325Y-5725650D02*
X7840420Y-5725650D01*
X7840420Y-5725650D02*
X7859468Y-5735174D01*
X7859468Y-5735174D02*
X7868991Y-5754222D01*
X7868991Y-5754222D02*
X7868991Y-5773269D01*
X7868991Y-5773269D02*
X7773753Y-5792317D01*
X7945182Y-5849460D02*
X7964230Y-5858984D01*
X7964230Y-5858984D02*
X8002325Y-5858984D01*
X8002325Y-5858984D02*
X8021372Y-5849460D01*
X8021372Y-5849460D02*
X8030896Y-5830412D01*
X8030896Y-5830412D02*
X8030896Y-5820888D01*
X8030896Y-5820888D02*
X8021372Y-5801841D01*
X8021372Y-5801841D02*
X8002325Y-5792317D01*
X8002325Y-5792317D02*
X7973753Y-5792317D01*
X7973753Y-5792317D02*
X7954706Y-5782793D01*
X7954706Y-5782793D02*
X7945182Y-5763746D01*
X7945182Y-5763746D02*
X7945182Y-5754222D01*
X7945182Y-5754222D02*
X7954706Y-5735174D01*
X7954706Y-5735174D02*
X7973753Y-5725650D01*
X7973753Y-5725650D02*
X8002325Y-5725650D01*
X8002325Y-5725650D02*
X8021372Y-5735174D01*
X8097563Y-5935174D02*
X8107087Y-5925650D01*
X8107087Y-5925650D02*
X8126134Y-5897079D01*
X8126134Y-5897079D02*
X8135658Y-5878031D01*
X8135658Y-5878031D02*
X8145182Y-5849460D01*
X8145182Y-5849460D02*
X8154706Y-5801841D01*
X8154706Y-5801841D02*
X8154706Y-5763746D01*
X8154706Y-5763746D02*
X8145182Y-5716127D01*
X8145182Y-5716127D02*
X8135658Y-5687555D01*
X8135658Y-5687555D02*
X8126134Y-5668508D01*
X8126134Y-5668508D02*
X8107087Y-5639936D01*
X8107087Y-5639936D02*
X8097563Y-5630412D01*
D13*
X3322500Y-6031500D02*
G75*
G02*
X3220500Y-6031500I-51000J0D01*
G01*
X3220500Y-6031500D02*
G75*
G02*
X3322500Y-6031500I51000J0D01*
G01*
D11*
X3688039Y-6122984D02*
X3573753Y-6122984D01*
X3630896Y-6122984D02*
X3630896Y-5922984D01*
X3630896Y-5922984D02*
X3611848Y-5951555D01*
X3611848Y-5951555D02*
X3592801Y-5970603D01*
X3592801Y-5970603D02*
X3573753Y-5980127D01*
X3773753Y-6103936D02*
X3783277Y-6113460D01*
X3783277Y-6113460D02*
X3773753Y-6122984D01*
X3773753Y-6122984D02*
X3764229Y-6113460D01*
X3764229Y-6113460D02*
X3773753Y-6103936D01*
X3773753Y-6103936D02*
X3773753Y-6122984D01*
X3907086Y-5922984D02*
X3926134Y-5922984D01*
X3926134Y-5922984D02*
X3945182Y-5932508D01*
X3945182Y-5932508D02*
X3954705Y-5942031D01*
X3954705Y-5942031D02*
X3964229Y-5961079D01*
X3964229Y-5961079D02*
X3973753Y-5999174D01*
X3973753Y-5999174D02*
X3973753Y-6046793D01*
X3973753Y-6046793D02*
X3964229Y-6084888D01*
X3964229Y-6084888D02*
X3954705Y-6103936D01*
X3954705Y-6103936D02*
X3945182Y-6113460D01*
X3945182Y-6113460D02*
X3926134Y-6122984D01*
X3926134Y-6122984D02*
X3907086Y-6122984D01*
X3907086Y-6122984D02*
X3888039Y-6113460D01*
X3888039Y-6113460D02*
X3878515Y-6103936D01*
X3878515Y-6103936D02*
X3868991Y-6084888D01*
X3868991Y-6084888D02*
X3859467Y-6046793D01*
X3859467Y-6046793D02*
X3859467Y-5999174D01*
X3859467Y-5999174D02*
X3868991Y-5961079D01*
X3868991Y-5961079D02*
X3878515Y-5942031D01*
X3878515Y-5942031D02*
X3888039Y-5932508D01*
X3888039Y-5932508D02*
X3907086Y-5922984D01*
X4049943Y-5942031D02*
X4059467Y-5932508D01*
X4059467Y-5932508D02*
X4078515Y-5922984D01*
X4078515Y-5922984D02*
X4126134Y-5922984D01*
X4126134Y-5922984D02*
X4145182Y-5932508D01*
X4145182Y-5932508D02*
X4154705Y-5942031D01*
X4154705Y-5942031D02*
X4164229Y-5961079D01*
X4164229Y-5961079D02*
X4164229Y-5980127D01*
X4164229Y-5980127D02*
X4154705Y-6008698D01*
X4154705Y-6008698D02*
X4040420Y-6122984D01*
X4040420Y-6122984D02*
X4164229Y-6122984D01*
X4288039Y-5922984D02*
X4307086Y-5922984D01*
X4307086Y-5922984D02*
X4326134Y-5932508D01*
X4326134Y-5932508D02*
X4335658Y-5942031D01*
X4335658Y-5942031D02*
X4345182Y-5961079D01*
X4345182Y-5961079D02*
X4354705Y-5999174D01*
X4354705Y-5999174D02*
X4354705Y-6046793D01*
X4354705Y-6046793D02*
X4345182Y-6084888D01*
X4345182Y-6084888D02*
X4335658Y-6103936D01*
X4335658Y-6103936D02*
X4326134Y-6113460D01*
X4326134Y-6113460D02*
X4307086Y-6122984D01*
X4307086Y-6122984D02*
X4288039Y-6122984D01*
X4288039Y-6122984D02*
X4268991Y-6113460D01*
X4268991Y-6113460D02*
X4259467Y-6103936D01*
X4259467Y-6103936D02*
X4249944Y-6084888D01*
X4249944Y-6084888D02*
X4240420Y-6046793D01*
X4240420Y-6046793D02*
X4240420Y-5999174D01*
X4240420Y-5999174D02*
X4249944Y-5961079D01*
X4249944Y-5961079D02*
X4259467Y-5942031D01*
X4259467Y-5942031D02*
X4268991Y-5932508D01*
X4268991Y-5932508D02*
X4288039Y-5922984D01*
X4440420Y-6122984D02*
X4440420Y-5989650D01*
X4440420Y-6008698D02*
X4449944Y-5999174D01*
X4449944Y-5999174D02*
X4468991Y-5989650D01*
X4468991Y-5989650D02*
X4497563Y-5989650D01*
X4497563Y-5989650D02*
X4516610Y-5999174D01*
X4516610Y-5999174D02*
X4526134Y-6018222D01*
X4526134Y-6018222D02*
X4526134Y-6122984D01*
X4526134Y-6018222D02*
X4535658Y-5999174D01*
X4535658Y-5999174D02*
X4554705Y-5989650D01*
X4554705Y-5989650D02*
X4583277Y-5989650D01*
X4583277Y-5989650D02*
X4602325Y-5999174D01*
X4602325Y-5999174D02*
X4611848Y-6018222D01*
X4611848Y-6018222D02*
X4611848Y-6122984D01*
X4707086Y-6122984D02*
X4707086Y-5989650D01*
X4707086Y-6008698D02*
X4716610Y-5999174D01*
X4716610Y-5999174D02*
X4735658Y-5989650D01*
X4735658Y-5989650D02*
X4764229Y-5989650D01*
X4764229Y-5989650D02*
X4783277Y-5999174D01*
X4783277Y-5999174D02*
X4792801Y-6018222D01*
X4792801Y-6018222D02*
X4792801Y-6122984D01*
X4792801Y-6018222D02*
X4802325Y-5999174D01*
X4802325Y-5999174D02*
X4821372Y-5989650D01*
X4821372Y-5989650D02*
X4849944Y-5989650D01*
X4849944Y-5989650D02*
X4868991Y-5999174D01*
X4868991Y-5999174D02*
X4878515Y-6018222D01*
X4878515Y-6018222D02*
X4878515Y-6122984D01*
X5268991Y-5913460D02*
X5097563Y-6170603D01*
X5526134Y-5922984D02*
X5545182Y-5922984D01*
X5545182Y-5922984D02*
X5564229Y-5932508D01*
X5564229Y-5932508D02*
X5573753Y-5942031D01*
X5573753Y-5942031D02*
X5583277Y-5961079D01*
X5583277Y-5961079D02*
X5592801Y-5999174D01*
X5592801Y-5999174D02*
X5592801Y-6046793D01*
X5592801Y-6046793D02*
X5583277Y-6084888D01*
X5583277Y-6084888D02*
X5573753Y-6103936D01*
X5573753Y-6103936D02*
X5564229Y-6113460D01*
X5564229Y-6113460D02*
X5545182Y-6122984D01*
X5545182Y-6122984D02*
X5526134Y-6122984D01*
X5526134Y-6122984D02*
X5507087Y-6113460D01*
X5507087Y-6113460D02*
X5497563Y-6103936D01*
X5497563Y-6103936D02*
X5488039Y-6084888D01*
X5488039Y-6084888D02*
X5478515Y-6046793D01*
X5478515Y-6046793D02*
X5478515Y-5999174D01*
X5478515Y-5999174D02*
X5488039Y-5961079D01*
X5488039Y-5961079D02*
X5497563Y-5942031D01*
X5497563Y-5942031D02*
X5507087Y-5932508D01*
X5507087Y-5932508D02*
X5526134Y-5922984D01*
X5678515Y-6103936D02*
X5688039Y-6113460D01*
X5688039Y-6113460D02*
X5678515Y-6122984D01*
X5678515Y-6122984D02*
X5668991Y-6113460D01*
X5668991Y-6113460D02*
X5678515Y-6103936D01*
X5678515Y-6103936D02*
X5678515Y-6122984D01*
X5811848Y-5922984D02*
X5830896Y-5922984D01*
X5830896Y-5922984D02*
X5849944Y-5932508D01*
X5849944Y-5932508D02*
X5859467Y-5942031D01*
X5859467Y-5942031D02*
X5868991Y-5961079D01*
X5868991Y-5961079D02*
X5878515Y-5999174D01*
X5878515Y-5999174D02*
X5878515Y-6046793D01*
X5878515Y-6046793D02*
X5868991Y-6084888D01*
X5868991Y-6084888D02*
X5859467Y-6103936D01*
X5859467Y-6103936D02*
X5849944Y-6113460D01*
X5849944Y-6113460D02*
X5830896Y-6122984D01*
X5830896Y-6122984D02*
X5811848Y-6122984D01*
X5811848Y-6122984D02*
X5792801Y-6113460D01*
X5792801Y-6113460D02*
X5783277Y-6103936D01*
X5783277Y-6103936D02*
X5773753Y-6084888D01*
X5773753Y-6084888D02*
X5764229Y-6046793D01*
X5764229Y-6046793D02*
X5764229Y-5999174D01*
X5764229Y-5999174D02*
X5773753Y-5961079D01*
X5773753Y-5961079D02*
X5783277Y-5942031D01*
X5783277Y-5942031D02*
X5792801Y-5932508D01*
X5792801Y-5932508D02*
X5811848Y-5922984D01*
X6049944Y-5989650D02*
X6049944Y-6122984D01*
X6002325Y-5913460D02*
X5954706Y-6056317D01*
X5954706Y-6056317D02*
X6078515Y-6056317D01*
X6192801Y-5922984D02*
X6211848Y-5922984D01*
X6211848Y-5922984D02*
X6230896Y-5932508D01*
X6230896Y-5932508D02*
X6240420Y-5942031D01*
X6240420Y-5942031D02*
X6249944Y-5961079D01*
X6249944Y-5961079D02*
X6259467Y-5999174D01*
X6259467Y-5999174D02*
X6259467Y-6046793D01*
X6259467Y-6046793D02*
X6249944Y-6084888D01*
X6249944Y-6084888D02*
X6240420Y-6103936D01*
X6240420Y-6103936D02*
X6230896Y-6113460D01*
X6230896Y-6113460D02*
X6211848Y-6122984D01*
X6211848Y-6122984D02*
X6192801Y-6122984D01*
X6192801Y-6122984D02*
X6173753Y-6113460D01*
X6173753Y-6113460D02*
X6164229Y-6103936D01*
X6164229Y-6103936D02*
X6154706Y-6084888D01*
X6154706Y-6084888D02*
X6145182Y-6046793D01*
X6145182Y-6046793D02*
X6145182Y-5999174D01*
X6145182Y-5999174D02*
X6154706Y-5961079D01*
X6154706Y-5961079D02*
X6164229Y-5942031D01*
X6164229Y-5942031D02*
X6173753Y-5932508D01*
X6173753Y-5932508D02*
X6192801Y-5922984D01*
X6335658Y-5942031D02*
X6345182Y-5932508D01*
X6345182Y-5932508D02*
X6364229Y-5922984D01*
X6364229Y-5922984D02*
X6411848Y-5922984D01*
X6411848Y-5922984D02*
X6430896Y-5932508D01*
X6430896Y-5932508D02*
X6440420Y-5942031D01*
X6440420Y-5942031D02*
X6449944Y-5961079D01*
X6449944Y-5961079D02*
X6449944Y-5980127D01*
X6449944Y-5980127D02*
X6440420Y-6008698D01*
X6440420Y-6008698D02*
X6326134Y-6122984D01*
X6326134Y-6122984D02*
X6449944Y-6122984D01*
X6526134Y-5922984D02*
X6526134Y-5961079D01*
X6602325Y-5922984D02*
X6602325Y-5961079D01*
X6897563Y-6199174D02*
X6888039Y-6189650D01*
X6888039Y-6189650D02*
X6868991Y-6161079D01*
X6868991Y-6161079D02*
X6859468Y-6142031D01*
X6859468Y-6142031D02*
X6849944Y-6113460D01*
X6849944Y-6113460D02*
X6840420Y-6065841D01*
X6840420Y-6065841D02*
X6840420Y-6027746D01*
X6840420Y-6027746D02*
X6849944Y-5980127D01*
X6849944Y-5980127D02*
X6859468Y-5951555D01*
X6859468Y-5951555D02*
X6868991Y-5932508D01*
X6868991Y-5932508D02*
X6888039Y-5903936D01*
X6888039Y-5903936D02*
X6897563Y-5894412D01*
X6983277Y-6122984D02*
X7021372Y-6122984D01*
X7021372Y-6122984D02*
X7040420Y-6113460D01*
X7040420Y-6113460D02*
X7049944Y-6103936D01*
X7049944Y-6103936D02*
X7068991Y-6075365D01*
X7068991Y-6075365D02*
X7078515Y-6037269D01*
X7078515Y-6037269D02*
X7078515Y-5961079D01*
X7078515Y-5961079D02*
X7068991Y-5942031D01*
X7068991Y-5942031D02*
X7059468Y-5932508D01*
X7059468Y-5932508D02*
X7040420Y-5922984D01*
X7040420Y-5922984D02*
X7002325Y-5922984D01*
X7002325Y-5922984D02*
X6983277Y-5932508D01*
X6983277Y-5932508D02*
X6973753Y-5942031D01*
X6973753Y-5942031D02*
X6964229Y-5961079D01*
X6964229Y-5961079D02*
X6964229Y-6008698D01*
X6964229Y-6008698D02*
X6973753Y-6027746D01*
X6973753Y-6027746D02*
X6983277Y-6037269D01*
X6983277Y-6037269D02*
X7002325Y-6046793D01*
X7002325Y-6046793D02*
X7040420Y-6046793D01*
X7040420Y-6046793D02*
X7059468Y-6037269D01*
X7059468Y-6037269D02*
X7068991Y-6027746D01*
X7068991Y-6027746D02*
X7078515Y-6008698D01*
X7316610Y-6122984D02*
X7316610Y-5922984D01*
X7402325Y-6122984D02*
X7402325Y-6018222D01*
X7402325Y-6018222D02*
X7392801Y-5999174D01*
X7392801Y-5999174D02*
X7373753Y-5989650D01*
X7373753Y-5989650D02*
X7345182Y-5989650D01*
X7345182Y-5989650D02*
X7326134Y-5999174D01*
X7326134Y-5999174D02*
X7316610Y-6008698D01*
X7526134Y-6122984D02*
X7507087Y-6113460D01*
X7507087Y-6113460D02*
X7497563Y-6103936D01*
X7497563Y-6103936D02*
X7488039Y-6084888D01*
X7488039Y-6084888D02*
X7488039Y-6027746D01*
X7488039Y-6027746D02*
X7497563Y-6008698D01*
X7497563Y-6008698D02*
X7507087Y-5999174D01*
X7507087Y-5999174D02*
X7526134Y-5989650D01*
X7526134Y-5989650D02*
X7554706Y-5989650D01*
X7554706Y-5989650D02*
X7573753Y-5999174D01*
X7573753Y-5999174D02*
X7583277Y-6008698D01*
X7583277Y-6008698D02*
X7592801Y-6027746D01*
X7592801Y-6027746D02*
X7592801Y-6084888D01*
X7592801Y-6084888D02*
X7583277Y-6103936D01*
X7583277Y-6103936D02*
X7573753Y-6113460D01*
X7573753Y-6113460D02*
X7554706Y-6122984D01*
X7554706Y-6122984D02*
X7526134Y-6122984D01*
X7707087Y-6122984D02*
X7688039Y-6113460D01*
X7688039Y-6113460D02*
X7678515Y-6094412D01*
X7678515Y-6094412D02*
X7678515Y-5922984D01*
X7859468Y-6113460D02*
X7840420Y-6122984D01*
X7840420Y-6122984D02*
X7802325Y-6122984D01*
X7802325Y-6122984D02*
X7783277Y-6113460D01*
X7783277Y-6113460D02*
X7773753Y-6094412D01*
X7773753Y-6094412D02*
X7773753Y-6018222D01*
X7773753Y-6018222D02*
X7783277Y-5999174D01*
X7783277Y-5999174D02*
X7802325Y-5989650D01*
X7802325Y-5989650D02*
X7840420Y-5989650D01*
X7840420Y-5989650D02*
X7859468Y-5999174D01*
X7859468Y-5999174D02*
X7868991Y-6018222D01*
X7868991Y-6018222D02*
X7868991Y-6037269D01*
X7868991Y-6037269D02*
X7773753Y-6056317D01*
X7945182Y-6113460D02*
X7964230Y-6122984D01*
X7964230Y-6122984D02*
X8002325Y-6122984D01*
X8002325Y-6122984D02*
X8021372Y-6113460D01*
X8021372Y-6113460D02*
X8030896Y-6094412D01*
X8030896Y-6094412D02*
X8030896Y-6084888D01*
X8030896Y-6084888D02*
X8021372Y-6065841D01*
X8021372Y-6065841D02*
X8002325Y-6056317D01*
X8002325Y-6056317D02*
X7973753Y-6056317D01*
X7973753Y-6056317D02*
X7954706Y-6046793D01*
X7954706Y-6046793D02*
X7945182Y-6027746D01*
X7945182Y-6027746D02*
X7945182Y-6018222D01*
X7945182Y-6018222D02*
X7954706Y-5999174D01*
X7954706Y-5999174D02*
X7973753Y-5989650D01*
X7973753Y-5989650D02*
X8002325Y-5989650D01*
X8002325Y-5989650D02*
X8021372Y-5999174D01*
X8097563Y-6199174D02*
X8107087Y-6189650D01*
X8107087Y-6189650D02*
X8126134Y-6161079D01*
X8126134Y-6161079D02*
X8135658Y-6142031D01*
X8135658Y-6142031D02*
X8145182Y-6113460D01*
X8145182Y-6113460D02*
X8154706Y-6065841D01*
X8154706Y-6065841D02*
X8154706Y-6027746D01*
X8154706Y-6027746D02*
X8145182Y-5980127D01*
X8145182Y-5980127D02*
X8135658Y-5951555D01*
X8135658Y-5951555D02*
X8126134Y-5932508D01*
X8126134Y-5932508D02*
X8107087Y-5903936D01*
X8107087Y-5903936D02*
X8097563Y-5894412D01*
D14*
X3270000Y-6243000D02*
X3270000Y-6348000D01*
X3217500Y-6295500D02*
X3322500Y-6295500D01*
D11*
X3688039Y-6386984D02*
X3573753Y-6386984D01*
X3630896Y-6386984D02*
X3630896Y-6186984D01*
X3630896Y-6186984D02*
X3611848Y-6215555D01*
X3611848Y-6215555D02*
X3592801Y-6234603D01*
X3592801Y-6234603D02*
X3573753Y-6244127D01*
X3773753Y-6367936D02*
X3783277Y-6377460D01*
X3783277Y-6377460D02*
X3773753Y-6386984D01*
X3773753Y-6386984D02*
X3764229Y-6377460D01*
X3764229Y-6377460D02*
X3773753Y-6367936D01*
X3773753Y-6367936D02*
X3773753Y-6386984D01*
X3907086Y-6186984D02*
X3926134Y-6186984D01*
X3926134Y-6186984D02*
X3945182Y-6196508D01*
X3945182Y-6196508D02*
X3954705Y-6206031D01*
X3954705Y-6206031D02*
X3964229Y-6225079D01*
X3964229Y-6225079D02*
X3973753Y-6263174D01*
X3973753Y-6263174D02*
X3973753Y-6310793D01*
X3973753Y-6310793D02*
X3964229Y-6348888D01*
X3964229Y-6348888D02*
X3954705Y-6367936D01*
X3954705Y-6367936D02*
X3945182Y-6377460D01*
X3945182Y-6377460D02*
X3926134Y-6386984D01*
X3926134Y-6386984D02*
X3907086Y-6386984D01*
X3907086Y-6386984D02*
X3888039Y-6377460D01*
X3888039Y-6377460D02*
X3878515Y-6367936D01*
X3878515Y-6367936D02*
X3868991Y-6348888D01*
X3868991Y-6348888D02*
X3859467Y-6310793D01*
X3859467Y-6310793D02*
X3859467Y-6263174D01*
X3859467Y-6263174D02*
X3868991Y-6225079D01*
X3868991Y-6225079D02*
X3878515Y-6206031D01*
X3878515Y-6206031D02*
X3888039Y-6196508D01*
X3888039Y-6196508D02*
X3907086Y-6186984D01*
X4154705Y-6186984D02*
X4059467Y-6186984D01*
X4059467Y-6186984D02*
X4049943Y-6282222D01*
X4049943Y-6282222D02*
X4059467Y-6272698D01*
X4059467Y-6272698D02*
X4078515Y-6263174D01*
X4078515Y-6263174D02*
X4126134Y-6263174D01*
X4126134Y-6263174D02*
X4145182Y-6272698D01*
X4145182Y-6272698D02*
X4154705Y-6282222D01*
X4154705Y-6282222D02*
X4164229Y-6301269D01*
X4164229Y-6301269D02*
X4164229Y-6348888D01*
X4164229Y-6348888D02*
X4154705Y-6367936D01*
X4154705Y-6367936D02*
X4145182Y-6377460D01*
X4145182Y-6377460D02*
X4126134Y-6386984D01*
X4126134Y-6386984D02*
X4078515Y-6386984D01*
X4078515Y-6386984D02*
X4059467Y-6377460D01*
X4059467Y-6377460D02*
X4049943Y-6367936D01*
X4288039Y-6186984D02*
X4307086Y-6186984D01*
X4307086Y-6186984D02*
X4326134Y-6196508D01*
X4326134Y-6196508D02*
X4335658Y-6206031D01*
X4335658Y-6206031D02*
X4345182Y-6225079D01*
X4345182Y-6225079D02*
X4354705Y-6263174D01*
X4354705Y-6263174D02*
X4354705Y-6310793D01*
X4354705Y-6310793D02*
X4345182Y-6348888D01*
X4345182Y-6348888D02*
X4335658Y-6367936D01*
X4335658Y-6367936D02*
X4326134Y-6377460D01*
X4326134Y-6377460D02*
X4307086Y-6386984D01*
X4307086Y-6386984D02*
X4288039Y-6386984D01*
X4288039Y-6386984D02*
X4268991Y-6377460D01*
X4268991Y-6377460D02*
X4259467Y-6367936D01*
X4259467Y-6367936D02*
X4249944Y-6348888D01*
X4249944Y-6348888D02*
X4240420Y-6310793D01*
X4240420Y-6310793D02*
X4240420Y-6263174D01*
X4240420Y-6263174D02*
X4249944Y-6225079D01*
X4249944Y-6225079D02*
X4259467Y-6206031D01*
X4259467Y-6206031D02*
X4268991Y-6196508D01*
X4268991Y-6196508D02*
X4288039Y-6186984D01*
X4440420Y-6386984D02*
X4440420Y-6253650D01*
X4440420Y-6272698D02*
X4449944Y-6263174D01*
X4449944Y-6263174D02*
X4468991Y-6253650D01*
X4468991Y-6253650D02*
X4497563Y-6253650D01*
X4497563Y-6253650D02*
X4516610Y-6263174D01*
X4516610Y-6263174D02*
X4526134Y-6282222D01*
X4526134Y-6282222D02*
X4526134Y-6386984D01*
X4526134Y-6282222D02*
X4535658Y-6263174D01*
X4535658Y-6263174D02*
X4554705Y-6253650D01*
X4554705Y-6253650D02*
X4583277Y-6253650D01*
X4583277Y-6253650D02*
X4602325Y-6263174D01*
X4602325Y-6263174D02*
X4611848Y-6282222D01*
X4611848Y-6282222D02*
X4611848Y-6386984D01*
X4707086Y-6386984D02*
X4707086Y-6253650D01*
X4707086Y-6272698D02*
X4716610Y-6263174D01*
X4716610Y-6263174D02*
X4735658Y-6253650D01*
X4735658Y-6253650D02*
X4764229Y-6253650D01*
X4764229Y-6253650D02*
X4783277Y-6263174D01*
X4783277Y-6263174D02*
X4792801Y-6282222D01*
X4792801Y-6282222D02*
X4792801Y-6386984D01*
X4792801Y-6282222D02*
X4802325Y-6263174D01*
X4802325Y-6263174D02*
X4821372Y-6253650D01*
X4821372Y-6253650D02*
X4849944Y-6253650D01*
X4849944Y-6253650D02*
X4868991Y-6263174D01*
X4868991Y-6263174D02*
X4878515Y-6282222D01*
X4878515Y-6282222D02*
X4878515Y-6386984D01*
X5268991Y-6177460D02*
X5097563Y-6434603D01*
X5526134Y-6186984D02*
X5545182Y-6186984D01*
X5545182Y-6186984D02*
X5564229Y-6196508D01*
X5564229Y-6196508D02*
X5573753Y-6206031D01*
X5573753Y-6206031D02*
X5583277Y-6225079D01*
X5583277Y-6225079D02*
X5592801Y-6263174D01*
X5592801Y-6263174D02*
X5592801Y-6310793D01*
X5592801Y-6310793D02*
X5583277Y-6348888D01*
X5583277Y-6348888D02*
X5573753Y-6367936D01*
X5573753Y-6367936D02*
X5564229Y-6377460D01*
X5564229Y-6377460D02*
X5545182Y-6386984D01*
X5545182Y-6386984D02*
X5526134Y-6386984D01*
X5526134Y-6386984D02*
X5507087Y-6377460D01*
X5507087Y-6377460D02*
X5497563Y-6367936D01*
X5497563Y-6367936D02*
X5488039Y-6348888D01*
X5488039Y-6348888D02*
X5478515Y-6310793D01*
X5478515Y-6310793D02*
X5478515Y-6263174D01*
X5478515Y-6263174D02*
X5488039Y-6225079D01*
X5488039Y-6225079D02*
X5497563Y-6206031D01*
X5497563Y-6206031D02*
X5507087Y-6196508D01*
X5507087Y-6196508D02*
X5526134Y-6186984D01*
X5678515Y-6367936D02*
X5688039Y-6377460D01*
X5688039Y-6377460D02*
X5678515Y-6386984D01*
X5678515Y-6386984D02*
X5668991Y-6377460D01*
X5668991Y-6377460D02*
X5678515Y-6367936D01*
X5678515Y-6367936D02*
X5678515Y-6386984D01*
X5811848Y-6186984D02*
X5830896Y-6186984D01*
X5830896Y-6186984D02*
X5849944Y-6196508D01*
X5849944Y-6196508D02*
X5859467Y-6206031D01*
X5859467Y-6206031D02*
X5868991Y-6225079D01*
X5868991Y-6225079D02*
X5878515Y-6263174D01*
X5878515Y-6263174D02*
X5878515Y-6310793D01*
X5878515Y-6310793D02*
X5868991Y-6348888D01*
X5868991Y-6348888D02*
X5859467Y-6367936D01*
X5859467Y-6367936D02*
X5849944Y-6377460D01*
X5849944Y-6377460D02*
X5830896Y-6386984D01*
X5830896Y-6386984D02*
X5811848Y-6386984D01*
X5811848Y-6386984D02*
X5792801Y-6377460D01*
X5792801Y-6377460D02*
X5783277Y-6367936D01*
X5783277Y-6367936D02*
X5773753Y-6348888D01*
X5773753Y-6348888D02*
X5764229Y-6310793D01*
X5764229Y-6310793D02*
X5764229Y-6263174D01*
X5764229Y-6263174D02*
X5773753Y-6225079D01*
X5773753Y-6225079D02*
X5783277Y-6206031D01*
X5783277Y-6206031D02*
X5792801Y-6196508D01*
X5792801Y-6196508D02*
X5811848Y-6186984D01*
X6049944Y-6253650D02*
X6049944Y-6386984D01*
X6002325Y-6177460D02*
X5954706Y-6320317D01*
X5954706Y-6320317D02*
X6078515Y-6320317D01*
X6259467Y-6386984D02*
X6145182Y-6386984D01*
X6202325Y-6386984D02*
X6202325Y-6186984D01*
X6202325Y-6186984D02*
X6183277Y-6215555D01*
X6183277Y-6215555D02*
X6164229Y-6234603D01*
X6164229Y-6234603D02*
X6145182Y-6244127D01*
X6326134Y-6186984D02*
X6449944Y-6186984D01*
X6449944Y-6186984D02*
X6383277Y-6263174D01*
X6383277Y-6263174D02*
X6411848Y-6263174D01*
X6411848Y-6263174D02*
X6430896Y-6272698D01*
X6430896Y-6272698D02*
X6440420Y-6282222D01*
X6440420Y-6282222D02*
X6449944Y-6301269D01*
X6449944Y-6301269D02*
X6449944Y-6348888D01*
X6449944Y-6348888D02*
X6440420Y-6367936D01*
X6440420Y-6367936D02*
X6430896Y-6377460D01*
X6430896Y-6377460D02*
X6411848Y-6386984D01*
X6411848Y-6386984D02*
X6354706Y-6386984D01*
X6354706Y-6386984D02*
X6335658Y-6377460D01*
X6335658Y-6377460D02*
X6326134Y-6367936D01*
X6526134Y-6186984D02*
X6526134Y-6225079D01*
X6602325Y-6186984D02*
X6602325Y-6225079D01*
X6897563Y-6463174D02*
X6888039Y-6453650D01*
X6888039Y-6453650D02*
X6868991Y-6425079D01*
X6868991Y-6425079D02*
X6859468Y-6406031D01*
X6859468Y-6406031D02*
X6849944Y-6377460D01*
X6849944Y-6377460D02*
X6840420Y-6329841D01*
X6840420Y-6329841D02*
X6840420Y-6291746D01*
X6840420Y-6291746D02*
X6849944Y-6244127D01*
X6849944Y-6244127D02*
X6859468Y-6215555D01*
X6859468Y-6215555D02*
X6868991Y-6196508D01*
X6868991Y-6196508D02*
X6888039Y-6167936D01*
X6888039Y-6167936D02*
X6897563Y-6158412D01*
X7059468Y-6186984D02*
X7021372Y-6186984D01*
X7021372Y-6186984D02*
X7002325Y-6196508D01*
X7002325Y-6196508D02*
X6992801Y-6206031D01*
X6992801Y-6206031D02*
X6973753Y-6234603D01*
X6973753Y-6234603D02*
X6964229Y-6272698D01*
X6964229Y-6272698D02*
X6964229Y-6348888D01*
X6964229Y-6348888D02*
X6973753Y-6367936D01*
X6973753Y-6367936D02*
X6983277Y-6377460D01*
X6983277Y-6377460D02*
X7002325Y-6386984D01*
X7002325Y-6386984D02*
X7040420Y-6386984D01*
X7040420Y-6386984D02*
X7059468Y-6377460D01*
X7059468Y-6377460D02*
X7068991Y-6367936D01*
X7068991Y-6367936D02*
X7078515Y-6348888D01*
X7078515Y-6348888D02*
X7078515Y-6301269D01*
X7078515Y-6301269D02*
X7068991Y-6282222D01*
X7068991Y-6282222D02*
X7059468Y-6272698D01*
X7059468Y-6272698D02*
X7040420Y-6263174D01*
X7040420Y-6263174D02*
X7002325Y-6263174D01*
X7002325Y-6263174D02*
X6983277Y-6272698D01*
X6983277Y-6272698D02*
X6973753Y-6282222D01*
X6973753Y-6282222D02*
X6964229Y-6301269D01*
X7316610Y-6386984D02*
X7316610Y-6186984D01*
X7402325Y-6386984D02*
X7402325Y-6282222D01*
X7402325Y-6282222D02*
X7392801Y-6263174D01*
X7392801Y-6263174D02*
X7373753Y-6253650D01*
X7373753Y-6253650D02*
X7345182Y-6253650D01*
X7345182Y-6253650D02*
X7326134Y-6263174D01*
X7326134Y-6263174D02*
X7316610Y-6272698D01*
X7526134Y-6386984D02*
X7507087Y-6377460D01*
X7507087Y-6377460D02*
X7497563Y-6367936D01*
X7497563Y-6367936D02*
X7488039Y-6348888D01*
X7488039Y-6348888D02*
X7488039Y-6291746D01*
X7488039Y-6291746D02*
X7497563Y-6272698D01*
X7497563Y-6272698D02*
X7507087Y-6263174D01*
X7507087Y-6263174D02*
X7526134Y-6253650D01*
X7526134Y-6253650D02*
X7554706Y-6253650D01*
X7554706Y-6253650D02*
X7573753Y-6263174D01*
X7573753Y-6263174D02*
X7583277Y-6272698D01*
X7583277Y-6272698D02*
X7592801Y-6291746D01*
X7592801Y-6291746D02*
X7592801Y-6348888D01*
X7592801Y-6348888D02*
X7583277Y-6367936D01*
X7583277Y-6367936D02*
X7573753Y-6377460D01*
X7573753Y-6377460D02*
X7554706Y-6386984D01*
X7554706Y-6386984D02*
X7526134Y-6386984D01*
X7707087Y-6386984D02*
X7688039Y-6377460D01*
X7688039Y-6377460D02*
X7678515Y-6358412D01*
X7678515Y-6358412D02*
X7678515Y-6186984D01*
X7859468Y-6377460D02*
X7840420Y-6386984D01*
X7840420Y-6386984D02*
X7802325Y-6386984D01*
X7802325Y-6386984D02*
X7783277Y-6377460D01*
X7783277Y-6377460D02*
X7773753Y-6358412D01*
X7773753Y-6358412D02*
X7773753Y-6282222D01*
X7773753Y-6282222D02*
X7783277Y-6263174D01*
X7783277Y-6263174D02*
X7802325Y-6253650D01*
X7802325Y-6253650D02*
X7840420Y-6253650D01*
X7840420Y-6253650D02*
X7859468Y-6263174D01*
X7859468Y-6263174D02*
X7868991Y-6282222D01*
X7868991Y-6282222D02*
X7868991Y-6301269D01*
X7868991Y-6301269D02*
X7773753Y-6320317D01*
X7945182Y-6377460D02*
X7964230Y-6386984D01*
X7964230Y-6386984D02*
X8002325Y-6386984D01*
X8002325Y-6386984D02*
X8021372Y-6377460D01*
X8021372Y-6377460D02*
X8030896Y-6358412D01*
X8030896Y-6358412D02*
X8030896Y-6348888D01*
X8030896Y-6348888D02*
X8021372Y-6329841D01*
X8021372Y-6329841D02*
X8002325Y-6320317D01*
X8002325Y-6320317D02*
X7973753Y-6320317D01*
X7973753Y-6320317D02*
X7954706Y-6310793D01*
X7954706Y-6310793D02*
X7945182Y-6291746D01*
X7945182Y-6291746D02*
X7945182Y-6282222D01*
X7945182Y-6282222D02*
X7954706Y-6263174D01*
X7954706Y-6263174D02*
X7973753Y-6253650D01*
X7973753Y-6253650D02*
X8002325Y-6253650D01*
X8002325Y-6253650D02*
X8021372Y-6263174D01*
X8097563Y-6463174D02*
X8107087Y-6453650D01*
X8107087Y-6453650D02*
X8126134Y-6425079D01*
X8126134Y-6425079D02*
X8135658Y-6406031D01*
X8135658Y-6406031D02*
X8145182Y-6377460D01*
X8145182Y-6377460D02*
X8154706Y-6329841D01*
X8154706Y-6329841D02*
X8154706Y-6291746D01*
X8154706Y-6291746D02*
X8145182Y-6244127D01*
X8145182Y-6244127D02*
X8135658Y-6215555D01*
X8135658Y-6215555D02*
X8126134Y-6196508D01*
X8126134Y-6196508D02*
X8107087Y-6167936D01*
X8107087Y-6167936D02*
X8097563Y-6158412D01*
X3293211Y-6630211D02*
X3293211Y-6488789D01*
X3151789Y-6488789D01*
X3151789Y-6630211D01*
X3293211Y-6630211D01*
X3564229Y-6450984D02*
X3688039Y-6450984D01*
X3688039Y-6450984D02*
X3621372Y-6527174D01*
X3621372Y-6527174D02*
X3649943Y-6527174D01*
X3649943Y-6527174D02*
X3668991Y-6536698D01*
X3668991Y-6536698D02*
X3678515Y-6546222D01*
X3678515Y-6546222D02*
X3688039Y-6565269D01*
X3688039Y-6565269D02*
X3688039Y-6612888D01*
X3688039Y-6612888D02*
X3678515Y-6631936D01*
X3678515Y-6631936D02*
X3668991Y-6641460D01*
X3668991Y-6641460D02*
X3649943Y-6650984D01*
X3649943Y-6650984D02*
X3592801Y-6650984D01*
X3592801Y-6650984D02*
X3573753Y-6641460D01*
X3573753Y-6641460D02*
X3564229Y-6631936D01*
X3773753Y-6631936D02*
X3783277Y-6641460D01*
X3783277Y-6641460D02*
X3773753Y-6650984D01*
X3773753Y-6650984D02*
X3764229Y-6641460D01*
X3764229Y-6641460D02*
X3773753Y-6631936D01*
X3773753Y-6631936D02*
X3773753Y-6650984D01*
X3973753Y-6650984D02*
X3859467Y-6650984D01*
X3916610Y-6650984D02*
X3916610Y-6450984D01*
X3916610Y-6450984D02*
X3897562Y-6479555D01*
X3897562Y-6479555D02*
X3878515Y-6498603D01*
X3878515Y-6498603D02*
X3859467Y-6508127D01*
X4088039Y-6536698D02*
X4068991Y-6527174D01*
X4068991Y-6527174D02*
X4059467Y-6517650D01*
X4059467Y-6517650D02*
X4049943Y-6498603D01*
X4049943Y-6498603D02*
X4049943Y-6489079D01*
X4049943Y-6489079D02*
X4059467Y-6470031D01*
X4059467Y-6470031D02*
X4068991Y-6460508D01*
X4068991Y-6460508D02*
X4088039Y-6450984D01*
X4088039Y-6450984D02*
X4126134Y-6450984D01*
X4126134Y-6450984D02*
X4145182Y-6460508D01*
X4145182Y-6460508D02*
X4154705Y-6470031D01*
X4154705Y-6470031D02*
X4164229Y-6489079D01*
X4164229Y-6489079D02*
X4164229Y-6498603D01*
X4164229Y-6498603D02*
X4154705Y-6517650D01*
X4154705Y-6517650D02*
X4145182Y-6527174D01*
X4145182Y-6527174D02*
X4126134Y-6536698D01*
X4126134Y-6536698D02*
X4088039Y-6536698D01*
X4088039Y-6536698D02*
X4068991Y-6546222D01*
X4068991Y-6546222D02*
X4059467Y-6555746D01*
X4059467Y-6555746D02*
X4049943Y-6574793D01*
X4049943Y-6574793D02*
X4049943Y-6612888D01*
X4049943Y-6612888D02*
X4059467Y-6631936D01*
X4059467Y-6631936D02*
X4068991Y-6641460D01*
X4068991Y-6641460D02*
X4088039Y-6650984D01*
X4088039Y-6650984D02*
X4126134Y-6650984D01*
X4126134Y-6650984D02*
X4145182Y-6641460D01*
X4145182Y-6641460D02*
X4154705Y-6631936D01*
X4154705Y-6631936D02*
X4164229Y-6612888D01*
X4164229Y-6612888D02*
X4164229Y-6574793D01*
X4164229Y-6574793D02*
X4154705Y-6555746D01*
X4154705Y-6555746D02*
X4145182Y-6546222D01*
X4145182Y-6546222D02*
X4126134Y-6536698D01*
X4288039Y-6450984D02*
X4307086Y-6450984D01*
X4307086Y-6450984D02*
X4326134Y-6460508D01*
X4326134Y-6460508D02*
X4335658Y-6470031D01*
X4335658Y-6470031D02*
X4345182Y-6489079D01*
X4345182Y-6489079D02*
X4354705Y-6527174D01*
X4354705Y-6527174D02*
X4354705Y-6574793D01*
X4354705Y-6574793D02*
X4345182Y-6612888D01*
X4345182Y-6612888D02*
X4335658Y-6631936D01*
X4335658Y-6631936D02*
X4326134Y-6641460D01*
X4326134Y-6641460D02*
X4307086Y-6650984D01*
X4307086Y-6650984D02*
X4288039Y-6650984D01*
X4288039Y-6650984D02*
X4268991Y-6641460D01*
X4268991Y-6641460D02*
X4259467Y-6631936D01*
X4259467Y-6631936D02*
X4249944Y-6612888D01*
X4249944Y-6612888D02*
X4240420Y-6574793D01*
X4240420Y-6574793D02*
X4240420Y-6527174D01*
X4240420Y-6527174D02*
X4249944Y-6489079D01*
X4249944Y-6489079D02*
X4259467Y-6470031D01*
X4259467Y-6470031D02*
X4268991Y-6460508D01*
X4268991Y-6460508D02*
X4288039Y-6450984D01*
X4440420Y-6650984D02*
X4440420Y-6517650D01*
X4440420Y-6536698D02*
X4449944Y-6527174D01*
X4449944Y-6527174D02*
X4468991Y-6517650D01*
X4468991Y-6517650D02*
X4497563Y-6517650D01*
X4497563Y-6517650D02*
X4516610Y-6527174D01*
X4516610Y-6527174D02*
X4526134Y-6546222D01*
X4526134Y-6546222D02*
X4526134Y-6650984D01*
X4526134Y-6546222D02*
X4535658Y-6527174D01*
X4535658Y-6527174D02*
X4554705Y-6517650D01*
X4554705Y-6517650D02*
X4583277Y-6517650D01*
X4583277Y-6517650D02*
X4602325Y-6527174D01*
X4602325Y-6527174D02*
X4611848Y-6546222D01*
X4611848Y-6546222D02*
X4611848Y-6650984D01*
X4707086Y-6650984D02*
X4707086Y-6517650D01*
X4707086Y-6536698D02*
X4716610Y-6527174D01*
X4716610Y-6527174D02*
X4735658Y-6517650D01*
X4735658Y-6517650D02*
X4764229Y-6517650D01*
X4764229Y-6517650D02*
X4783277Y-6527174D01*
X4783277Y-6527174D02*
X4792801Y-6546222D01*
X4792801Y-6546222D02*
X4792801Y-6650984D01*
X4792801Y-6546222D02*
X4802325Y-6527174D01*
X4802325Y-6527174D02*
X4821372Y-6517650D01*
X4821372Y-6517650D02*
X4849944Y-6517650D01*
X4849944Y-6517650D02*
X4868991Y-6527174D01*
X4868991Y-6527174D02*
X4878515Y-6546222D01*
X4878515Y-6546222D02*
X4878515Y-6650984D01*
X5268991Y-6441460D02*
X5097563Y-6698603D01*
X5526134Y-6450984D02*
X5545182Y-6450984D01*
X5545182Y-6450984D02*
X5564229Y-6460508D01*
X5564229Y-6460508D02*
X5573753Y-6470031D01*
X5573753Y-6470031D02*
X5583277Y-6489079D01*
X5583277Y-6489079D02*
X5592801Y-6527174D01*
X5592801Y-6527174D02*
X5592801Y-6574793D01*
X5592801Y-6574793D02*
X5583277Y-6612888D01*
X5583277Y-6612888D02*
X5573753Y-6631936D01*
X5573753Y-6631936D02*
X5564229Y-6641460D01*
X5564229Y-6641460D02*
X5545182Y-6650984D01*
X5545182Y-6650984D02*
X5526134Y-6650984D01*
X5526134Y-6650984D02*
X5507087Y-6641460D01*
X5507087Y-6641460D02*
X5497563Y-6631936D01*
X5497563Y-6631936D02*
X5488039Y-6612888D01*
X5488039Y-6612888D02*
X5478515Y-6574793D01*
X5478515Y-6574793D02*
X5478515Y-6527174D01*
X5478515Y-6527174D02*
X5488039Y-6489079D01*
X5488039Y-6489079D02*
X5497563Y-6470031D01*
X5497563Y-6470031D02*
X5507087Y-6460508D01*
X5507087Y-6460508D02*
X5526134Y-6450984D01*
X5678515Y-6631936D02*
X5688039Y-6641460D01*
X5688039Y-6641460D02*
X5678515Y-6650984D01*
X5678515Y-6650984D02*
X5668991Y-6641460D01*
X5668991Y-6641460D02*
X5678515Y-6631936D01*
X5678515Y-6631936D02*
X5678515Y-6650984D01*
X5878515Y-6650984D02*
X5764229Y-6650984D01*
X5821372Y-6650984D02*
X5821372Y-6450984D01*
X5821372Y-6450984D02*
X5802325Y-6479555D01*
X5802325Y-6479555D02*
X5783277Y-6498603D01*
X5783277Y-6498603D02*
X5764229Y-6508127D01*
X5954706Y-6470031D02*
X5964229Y-6460508D01*
X5964229Y-6460508D02*
X5983277Y-6450984D01*
X5983277Y-6450984D02*
X6030896Y-6450984D01*
X6030896Y-6450984D02*
X6049944Y-6460508D01*
X6049944Y-6460508D02*
X6059467Y-6470031D01*
X6059467Y-6470031D02*
X6068991Y-6489079D01*
X6068991Y-6489079D02*
X6068991Y-6508127D01*
X6068991Y-6508127D02*
X6059467Y-6536698D01*
X6059467Y-6536698D02*
X5945182Y-6650984D01*
X5945182Y-6650984D02*
X6068991Y-6650984D01*
X6249944Y-6450984D02*
X6154706Y-6450984D01*
X6154706Y-6450984D02*
X6145182Y-6546222D01*
X6145182Y-6546222D02*
X6154706Y-6536698D01*
X6154706Y-6536698D02*
X6173753Y-6527174D01*
X6173753Y-6527174D02*
X6221372Y-6527174D01*
X6221372Y-6527174D02*
X6240420Y-6536698D01*
X6240420Y-6536698D02*
X6249944Y-6546222D01*
X6249944Y-6546222D02*
X6259467Y-6565269D01*
X6259467Y-6565269D02*
X6259467Y-6612888D01*
X6259467Y-6612888D02*
X6249944Y-6631936D01*
X6249944Y-6631936D02*
X6240420Y-6641460D01*
X6240420Y-6641460D02*
X6221372Y-6650984D01*
X6221372Y-6650984D02*
X6173753Y-6650984D01*
X6173753Y-6650984D02*
X6154706Y-6641460D01*
X6154706Y-6641460D02*
X6145182Y-6631936D01*
X6335658Y-6470031D02*
X6345182Y-6460508D01*
X6345182Y-6460508D02*
X6364229Y-6450984D01*
X6364229Y-6450984D02*
X6411848Y-6450984D01*
X6411848Y-6450984D02*
X6430896Y-6460508D01*
X6430896Y-6460508D02*
X6440420Y-6470031D01*
X6440420Y-6470031D02*
X6449944Y-6489079D01*
X6449944Y-6489079D02*
X6449944Y-6508127D01*
X6449944Y-6508127D02*
X6440420Y-6536698D01*
X6440420Y-6536698D02*
X6326134Y-6650984D01*
X6326134Y-6650984D02*
X6449944Y-6650984D01*
X6526134Y-6450984D02*
X6526134Y-6489079D01*
X6602325Y-6450984D02*
X6602325Y-6489079D01*
X6897563Y-6727174D02*
X6888039Y-6717650D01*
X6888039Y-6717650D02*
X6868991Y-6689079D01*
X6868991Y-6689079D02*
X6859468Y-6670031D01*
X6859468Y-6670031D02*
X6849944Y-6641460D01*
X6849944Y-6641460D02*
X6840420Y-6593841D01*
X6840420Y-6593841D02*
X6840420Y-6555746D01*
X6840420Y-6555746D02*
X6849944Y-6508127D01*
X6849944Y-6508127D02*
X6859468Y-6479555D01*
X6859468Y-6479555D02*
X6868991Y-6460508D01*
X6868991Y-6460508D02*
X6888039Y-6431936D01*
X6888039Y-6431936D02*
X6897563Y-6422412D01*
X6964229Y-6470031D02*
X6973753Y-6460508D01*
X6973753Y-6460508D02*
X6992801Y-6450984D01*
X6992801Y-6450984D02*
X7040420Y-6450984D01*
X7040420Y-6450984D02*
X7059468Y-6460508D01*
X7059468Y-6460508D02*
X7068991Y-6470031D01*
X7068991Y-6470031D02*
X7078515Y-6489079D01*
X7078515Y-6489079D02*
X7078515Y-6508127D01*
X7078515Y-6508127D02*
X7068991Y-6536698D01*
X7068991Y-6536698D02*
X6954706Y-6650984D01*
X6954706Y-6650984D02*
X7078515Y-6650984D01*
X7316610Y-6650984D02*
X7316610Y-6450984D01*
X7402325Y-6650984D02*
X7402325Y-6546222D01*
X7402325Y-6546222D02*
X7392801Y-6527174D01*
X7392801Y-6527174D02*
X7373753Y-6517650D01*
X7373753Y-6517650D02*
X7345182Y-6517650D01*
X7345182Y-6517650D02*
X7326134Y-6527174D01*
X7326134Y-6527174D02*
X7316610Y-6536698D01*
X7526134Y-6650984D02*
X7507087Y-6641460D01*
X7507087Y-6641460D02*
X7497563Y-6631936D01*
X7497563Y-6631936D02*
X7488039Y-6612888D01*
X7488039Y-6612888D02*
X7488039Y-6555746D01*
X7488039Y-6555746D02*
X7497563Y-6536698D01*
X7497563Y-6536698D02*
X7507087Y-6527174D01*
X7507087Y-6527174D02*
X7526134Y-6517650D01*
X7526134Y-6517650D02*
X7554706Y-6517650D01*
X7554706Y-6517650D02*
X7573753Y-6527174D01*
X7573753Y-6527174D02*
X7583277Y-6536698D01*
X7583277Y-6536698D02*
X7592801Y-6555746D01*
X7592801Y-6555746D02*
X7592801Y-6612888D01*
X7592801Y-6612888D02*
X7583277Y-6631936D01*
X7583277Y-6631936D02*
X7573753Y-6641460D01*
X7573753Y-6641460D02*
X7554706Y-6650984D01*
X7554706Y-6650984D02*
X7526134Y-6650984D01*
X7707087Y-6650984D02*
X7688039Y-6641460D01*
X7688039Y-6641460D02*
X7678515Y-6622412D01*
X7678515Y-6622412D02*
X7678515Y-6450984D01*
X7859468Y-6641460D02*
X7840420Y-6650984D01*
X7840420Y-6650984D02*
X7802325Y-6650984D01*
X7802325Y-6650984D02*
X7783277Y-6641460D01*
X7783277Y-6641460D02*
X7773753Y-6622412D01*
X7773753Y-6622412D02*
X7773753Y-6546222D01*
X7773753Y-6546222D02*
X7783277Y-6527174D01*
X7783277Y-6527174D02*
X7802325Y-6517650D01*
X7802325Y-6517650D02*
X7840420Y-6517650D01*
X7840420Y-6517650D02*
X7859468Y-6527174D01*
X7859468Y-6527174D02*
X7868991Y-6546222D01*
X7868991Y-6546222D02*
X7868991Y-6565269D01*
X7868991Y-6565269D02*
X7773753Y-6584317D01*
X7945182Y-6641460D02*
X7964230Y-6650984D01*
X7964230Y-6650984D02*
X8002325Y-6650984D01*
X8002325Y-6650984D02*
X8021372Y-6641460D01*
X8021372Y-6641460D02*
X8030896Y-6622412D01*
X8030896Y-6622412D02*
X8030896Y-6612888D01*
X8030896Y-6612888D02*
X8021372Y-6593841D01*
X8021372Y-6593841D02*
X8002325Y-6584317D01*
X8002325Y-6584317D02*
X7973753Y-6584317D01*
X7973753Y-6584317D02*
X7954706Y-6574793D01*
X7954706Y-6574793D02*
X7945182Y-6555746D01*
X7945182Y-6555746D02*
X7945182Y-6546222D01*
X7945182Y-6546222D02*
X7954706Y-6527174D01*
X7954706Y-6527174D02*
X7973753Y-6517650D01*
X7973753Y-6517650D02*
X8002325Y-6517650D01*
X8002325Y-6517650D02*
X8021372Y-6527174D01*
X8097563Y-6727174D02*
X8107087Y-6717650D01*
X8107087Y-6717650D02*
X8126134Y-6689079D01*
X8126134Y-6689079D02*
X8135658Y-6670031D01*
X8135658Y-6670031D02*
X8145182Y-6641460D01*
X8145182Y-6641460D02*
X8154706Y-6593841D01*
X8154706Y-6593841D02*
X8154706Y-6555746D01*
X8154706Y-6555746D02*
X8145182Y-6508127D01*
X8145182Y-6508127D02*
X8135658Y-6479555D01*
X8135658Y-6479555D02*
X8126134Y-6460508D01*
X8126134Y-6460508D02*
X8107087Y-6431936D01*
X8107087Y-6431936D02*
X8097563Y-6422412D01*
M02*
